<mxfile host="65bd71144e" pages="3">
    <diagram id="woqifiTdC7azNpl11sqe" name="Identity Database">
        <mxGraphModel dx="5519" dy="-2810" grid="0" gridSize="10" guides="0" tooltips="0" connect="1" arrows="1" fold="1" page="0" pageScale="1" pageWidth="850" pageHeight="1100" math="0" shadow="0">
            <root>
                <mxCell id="DVVCRubVFy9-jVu2xRqT-0"/>
                <mxCell id="DVVCRubVFy9-jVu2xRqT-1" parent="DVVCRubVFy9-jVu2xRqT-0"/>
                <mxCell id="6lLHNWrCiKYkvcWKfaWd-0" value="Identity Database" style="swimlane;labelBackgroundColor=none;fontSize=11;startSize=23;" parent="DVVCRubVFy9-jVu2xRqT-1" vertex="1">
                    <mxGeometry x="-4645" y="4017" width="1822" height="1820" as="geometry">
                        <mxRectangle x="-130" y="230" width="90" height="30" as="alternateBounds"/>
                    </mxGeometry>
                </mxCell>
                <mxCell id="6lLHNWrCiKYkvcWKfaWd-1" value="User *" style="swimlane;fontStyle=0;childLayout=stackLayout;horizontal=1;startSize=26;fillColor=none;horizontalStack=0;resizeParent=1;resizeParentMax=0;resizeLast=0;collapsible=1;marginBottom=0;" parent="6lLHNWrCiKYkvcWKfaWd-0" vertex="1">
                    <mxGeometry x="763" y="620" width="212" height="566" as="geometry"/>
                </mxCell>
                <mxCell id="6lLHNWrCiKYkvcWKfaWd-2" value="+ Id: Guid" style="text;strokeColor=none;fillColor=none;align=left;verticalAlign=top;spacingLeft=4;spacingRight=4;overflow=hidden;rotatable=0;points=[[0,0.5],[1,0.5]];portConstraint=eastwest;" parent="6lLHNWrCiKYkvcWKfaWd-1" vertex="1">
                    <mxGeometry y="26" width="212" height="30" as="geometry"/>
                </mxCell>
                <mxCell id="6lLHNWrCiKYkvcWKfaWd-3" value="+ UserName: string" style="text;strokeColor=none;fillColor=none;align=left;verticalAlign=top;spacingLeft=4;spacingRight=4;overflow=hidden;rotatable=0;points=[[0,0.5],[1,0.5]];portConstraint=eastwest;" parent="6lLHNWrCiKYkvcWKfaWd-1" vertex="1">
                    <mxGeometry y="56" width="212" height="30" as="geometry"/>
                </mxCell>
                <mxCell id="6lLHNWrCiKYkvcWKfaWd-4" value="+ NormalizedUserName: string" style="text;strokeColor=none;fillColor=none;align=left;verticalAlign=top;spacingLeft=4;spacingRight=4;overflow=hidden;rotatable=0;points=[[0,0.5],[1,0.5]];portConstraint=eastwest;" parent="6lLHNWrCiKYkvcWKfaWd-1" vertex="1">
                    <mxGeometry y="86" width="212" height="30" as="geometry"/>
                </mxCell>
                <mxCell id="6lLHNWrCiKYkvcWKfaWd-5" value="+ Email: string" style="text;strokeColor=none;fillColor=none;align=left;verticalAlign=top;spacingLeft=4;spacingRight=4;overflow=hidden;rotatable=0;points=[[0,0.5],[1,0.5]];portConstraint=eastwest;" parent="6lLHNWrCiKYkvcWKfaWd-1" vertex="1">
                    <mxGeometry y="116" width="212" height="30" as="geometry"/>
                </mxCell>
                <mxCell id="6lLHNWrCiKYkvcWKfaWd-6" value="+ NormalizedEmail: string" style="text;strokeColor=none;fillColor=none;align=left;verticalAlign=top;spacingLeft=4;spacingRight=4;overflow=hidden;rotatable=0;points=[[0,0.5],[1,0.5]];portConstraint=eastwest;" parent="6lLHNWrCiKYkvcWKfaWd-1" vertex="1">
                    <mxGeometry y="146" width="212" height="30" as="geometry"/>
                </mxCell>
                <mxCell id="6lLHNWrCiKYkvcWKfaWd-7" value="+ EmailConfirmed: bool" style="text;strokeColor=none;fillColor=none;align=left;verticalAlign=top;spacingLeft=4;spacingRight=4;overflow=hidden;rotatable=0;points=[[0,0.5],[1,0.5]];portConstraint=eastwest;" parent="6lLHNWrCiKYkvcWKfaWd-1" vertex="1">
                    <mxGeometry y="176" width="212" height="30" as="geometry"/>
                </mxCell>
                <mxCell id="6lLHNWrCiKYkvcWKfaWd-8" value="+ PasswordHash: string" style="text;strokeColor=none;fillColor=none;align=left;verticalAlign=top;spacingLeft=4;spacingRight=4;overflow=hidden;rotatable=0;points=[[0,0.5],[1,0.5]];portConstraint=eastwest;" parent="6lLHNWrCiKYkvcWKfaWd-1" vertex="1">
                    <mxGeometry y="206" width="212" height="30" as="geometry"/>
                </mxCell>
                <mxCell id="6lLHNWrCiKYkvcWKfaWd-9" value="+ SecurityStamp: string" style="text;strokeColor=none;fillColor=none;align=left;verticalAlign=top;spacingLeft=4;spacingRight=4;overflow=hidden;rotatable=0;points=[[0,0.5],[1,0.5]];portConstraint=eastwest;" parent="6lLHNWrCiKYkvcWKfaWd-1" vertex="1">
                    <mxGeometry y="236" width="212" height="30" as="geometry"/>
                </mxCell>
                <mxCell id="6lLHNWrCiKYkvcWKfaWd-10" value="+ ConcurrencyStamp: string" style="text;strokeColor=none;fillColor=none;align=left;verticalAlign=top;spacingLeft=4;spacingRight=4;overflow=hidden;rotatable=0;points=[[0,0.5],[1,0.5]];portConstraint=eastwest;" parent="6lLHNWrCiKYkvcWKfaWd-1" vertex="1">
                    <mxGeometry y="266" width="212" height="30" as="geometry"/>
                </mxCell>
                <mxCell id="6lLHNWrCiKYkvcWKfaWd-11" value="+ PhoneNumber: string" style="text;strokeColor=none;fillColor=none;align=left;verticalAlign=top;spacingLeft=4;spacingRight=4;overflow=hidden;rotatable=0;points=[[0,0.5],[1,0.5]];portConstraint=eastwest;" parent="6lLHNWrCiKYkvcWKfaWd-1" vertex="1">
                    <mxGeometry y="296" width="212" height="30" as="geometry"/>
                </mxCell>
                <mxCell id="6lLHNWrCiKYkvcWKfaWd-12" value="+ PhoneNumberConfirmed: bool" style="text;strokeColor=none;fillColor=none;align=left;verticalAlign=top;spacingLeft=4;spacingRight=4;overflow=hidden;rotatable=0;points=[[0,0.5],[1,0.5]];portConstraint=eastwest;" parent="6lLHNWrCiKYkvcWKfaWd-1" vertex="1">
                    <mxGeometry y="326" width="212" height="30" as="geometry"/>
                </mxCell>
                <mxCell id="6lLHNWrCiKYkvcWKfaWd-13" value="+ TwoFactorEnabled: bool" style="text;strokeColor=none;fillColor=none;align=left;verticalAlign=top;spacingLeft=4;spacingRight=4;overflow=hidden;rotatable=0;points=[[0,0.5],[1,0.5]];portConstraint=eastwest;" parent="6lLHNWrCiKYkvcWKfaWd-1" vertex="1">
                    <mxGeometry y="356" width="212" height="30" as="geometry"/>
                </mxCell>
                <mxCell id="6lLHNWrCiKYkvcWKfaWd-14" value="+ LockoutEnd: DateTimeOffset" style="text;strokeColor=none;fillColor=none;align=left;verticalAlign=top;spacingLeft=4;spacingRight=4;overflow=hidden;rotatable=0;points=[[0,0.5],[1,0.5]];portConstraint=eastwest;" parent="6lLHNWrCiKYkvcWKfaWd-1" vertex="1">
                    <mxGeometry y="386" width="212" height="30" as="geometry"/>
                </mxCell>
                <mxCell id="6lLHNWrCiKYkvcWKfaWd-15" value="+ LockoutEnabled: bool" style="text;strokeColor=none;fillColor=none;align=left;verticalAlign=top;spacingLeft=4;spacingRight=4;overflow=hidden;rotatable=0;points=[[0,0.5],[1,0.5]];portConstraint=eastwest;" parent="6lLHNWrCiKYkvcWKfaWd-1" vertex="1">
                    <mxGeometry y="416" width="212" height="30" as="geometry"/>
                </mxCell>
                <mxCell id="6lLHNWrCiKYkvcWKfaWd-16" value="+ AccessFailedCount: bool" style="text;strokeColor=none;fillColor=none;align=left;verticalAlign=top;spacingLeft=4;spacingRight=4;overflow=hidden;rotatable=0;points=[[0,0.5],[1,0.5]];portConstraint=eastwest;" parent="6lLHNWrCiKYkvcWKfaWd-1" vertex="1">
                    <mxGeometry y="446" width="212" height="30" as="geometry"/>
                </mxCell>
                <mxCell id="3gLO8hjb9zUodP_ft_81-6" value="// Custom properties below" style="text;strokeColor=none;fillColor=none;align=left;verticalAlign=top;spacingLeft=4;spacingRight=4;overflow=hidden;rotatable=0;points=[[0,0.5],[1,0.5]];portConstraint=eastwest;" parent="6lLHNWrCiKYkvcWKfaWd-1" vertex="1">
                    <mxGeometry y="476" width="212" height="30" as="geometry"/>
                </mxCell>
                <mxCell id="3gLO8hjb9zUodP_ft_81-7" value="+ IsEnabled: boolÂ " style="text;strokeColor=none;fillColor=none;align=left;verticalAlign=top;spacingLeft=4;spacingRight=4;overflow=hidden;rotatable=0;points=[[0,0.5],[1,0.5]];portConstraint=eastwest;" parent="6lLHNWrCiKYkvcWKfaWd-1" vertex="1">
                    <mxGeometry y="506" width="212" height="30" as="geometry"/>
                </mxCell>
                <mxCell id="3gLO8hjb9zUodP_ft_81-8" value="+ IsVerified: bool" style="text;strokeColor=none;fillColor=none;align=left;verticalAlign=top;spacingLeft=4;spacingRight=4;overflow=hidden;rotatable=0;points=[[0,0.5],[1,0.5]];portConstraint=eastwest;" parent="6lLHNWrCiKYkvcWKfaWd-1" vertex="1">
                    <mxGeometry y="536" width="212" height="30" as="geometry"/>
                </mxCell>
                <mxCell id="6lLHNWrCiKYkvcWKfaWd-45" style="edgeStyle=orthogonalEdgeStyle;html=1;exitX=0;exitY=0.5;exitDx=0;exitDy=0;entryX=1;entryY=0.5;entryDx=0;entryDy=0;" parent="6lLHNWrCiKYkvcWKfaWd-0" source="6lLHNWrCiKYkvcWKfaWd-18" target="6lLHNWrCiKYkvcWKfaWd-2" edge="1">
                    <mxGeometry relative="1" as="geometry"/>
                </mxCell>
                <mxCell id="6lLHNWrCiKYkvcWKfaWd-48" style="edgeStyle=orthogonalEdgeStyle;html=1;exitX=0;exitY=0.5;exitDx=0;exitDy=0;entryX=1;entryY=0.5;entryDx=0;entryDy=0;" parent="6lLHNWrCiKYkvcWKfaWd-0" source="6lLHNWrCiKYkvcWKfaWd-34" target="6lLHNWrCiKYkvcWKfaWd-2" edge="1">
                    <mxGeometry relative="1" as="geometry"/>
                </mxCell>
                <mxCell id="6lLHNWrCiKYkvcWKfaWd-49" style="edgeStyle=orthogonalEdgeStyle;html=1;exitX=0;exitY=0.5;exitDx=0;exitDy=0;entryX=1;entryY=0.5;entryDx=0;entryDy=0;" parent="6lLHNWrCiKYkvcWKfaWd-0" source="6lLHNWrCiKYkvcWKfaWd-41" target="6lLHNWrCiKYkvcWKfaWd-2" edge="1">
                    <mxGeometry relative="1" as="geometry"/>
                </mxCell>
                <mxCell id="6lLHNWrCiKYkvcWKfaWd-50" style="edgeStyle=orthogonalEdgeStyle;html=1;exitX=0;exitY=0.5;exitDx=0;exitDy=0;entryX=1;entryY=0.5;entryDx=0;entryDy=0;" parent="6lLHNWrCiKYkvcWKfaWd-0" source="6lLHNWrCiKYkvcWKfaWd-37" target="6lLHNWrCiKYkvcWKfaWd-2" edge="1">
                    <mxGeometry relative="1" as="geometry"/>
                </mxCell>
                <mxCell id="6lLHNWrCiKYkvcWKfaWd-51" value="BaseEntity" style="swimlane;fontStyle=0;childLayout=stackLayout;horizontal=1;startSize=26;fillColor=none;horizontalStack=0;resizeParent=1;resizeParentMax=0;resizeLast=0;collapsible=1;marginBottom=0;" parent="6lLHNWrCiKYkvcWKfaWd-0" vertex="1">
                    <mxGeometry x="27" y="49" width="170" height="146" as="geometry"/>
                </mxCell>
                <mxCell id="6lLHNWrCiKYkvcWKfaWd-52" value="+ Id: Guid" style="text;strokeColor=none;fillColor=none;align=left;verticalAlign=top;spacingLeft=4;spacingRight=4;overflow=hidden;rotatable=0;points=[[0,0.5],[1,0.5]];portConstraint=eastwest;" parent="6lLHNWrCiKYkvcWKfaWd-51" vertex="1">
                    <mxGeometry y="26" width="170" height="30" as="geometry"/>
                </mxCell>
                <mxCell id="6lLHNWrCiKYkvcWKfaWd-53" value="+ Created: DateTimeOffset" style="text;strokeColor=none;fillColor=none;align=left;verticalAlign=top;spacingLeft=4;spacingRight=4;overflow=hidden;rotatable=0;points=[[0,0.5],[1,0.5]];portConstraint=eastwest;" parent="6lLHNWrCiKYkvcWKfaWd-51" vertex="1">
                    <mxGeometry y="56" width="170" height="30" as="geometry"/>
                </mxCell>
                <mxCell id="6lLHNWrCiKYkvcWKfaWd-54" value="+ Changed: DateTimeOffset" style="text;strokeColor=none;fillColor=none;align=left;verticalAlign=top;spacingLeft=4;spacingRight=4;overflow=hidden;rotatable=0;points=[[0,0.5],[1,0.5]];portConstraint=eastwest;" parent="6lLHNWrCiKYkvcWKfaWd-51" vertex="1">
                    <mxGeometry y="86" width="170" height="30" as="geometry"/>
                </mxCell>
                <mxCell id="6lLHNWrCiKYkvcWKfaWd-55" value="+ Deleted: bool" style="text;strokeColor=none;fillColor=none;align=left;verticalAlign=top;spacingLeft=4;spacingRight=4;overflow=hidden;rotatable=0;points=[[0,0.5],[1,0.5]];portConstraint=eastwest;" parent="6lLHNWrCiKYkvcWKfaWd-51" vertex="1">
                    <mxGeometry y="116" width="170" height="30" as="geometry"/>
                </mxCell>
                <mxCell id="6lLHNWrCiKYkvcWKfaWd-60" value="Documents" style="swimlane;fontStyle=0;childLayout=stackLayout;horizontal=1;startSize=26;fillColor=none;horizontalStack=0;resizeParent=1;resizeParentMax=0;resizeLast=0;collapsible=1;marginBottom=0;" parent="6lLHNWrCiKYkvcWKfaWd-0" vertex="1">
                    <mxGeometry x="386" y="1109" width="140" height="146" as="geometry"/>
                </mxCell>
                <mxCell id="6lLHNWrCiKYkvcWKfaWd-61" value="+ Id: Guid" style="text;strokeColor=none;fillColor=none;align=left;verticalAlign=top;spacingLeft=4;spacingRight=4;overflow=hidden;rotatable=0;points=[[0,0.5],[1,0.5]];portConstraint=eastwest;" parent="6lLHNWrCiKYkvcWKfaWd-60" vertex="1">
                    <mxGeometry y="26" width="140" height="30" as="geometry"/>
                </mxCell>
                <mxCell id="6lLHNWrCiKYkvcWKfaWd-62" value="+ UserId: Guid" style="text;strokeColor=none;fillColor=none;align=left;verticalAlign=top;spacingLeft=4;spacingRight=4;overflow=hidden;rotatable=0;points=[[0,0.5],[1,0.5]];portConstraint=eastwest;" parent="6lLHNWrCiKYkvcWKfaWd-60" vertex="1">
                    <mxGeometry y="56" width="140" height="30" as="geometry"/>
                </mxCell>
                <mxCell id="6lLHNWrCiKYkvcWKfaWd-63" value="+ Contents: byte[]" style="text;strokeColor=none;fillColor=none;align=left;verticalAlign=top;spacingLeft=4;spacingRight=4;overflow=hidden;rotatable=0;points=[[0,0.5],[1,0.5]];portConstraint=eastwest;" parent="6lLHNWrCiKYkvcWKfaWd-60" vertex="1">
                    <mxGeometry y="86" width="140" height="30" as="geometry"/>
                </mxCell>
                <mxCell id="6lLHNWrCiKYkvcWKfaWd-64" value="+ Json: JsonObject" style="text;strokeColor=none;fillColor=none;align=left;verticalAlign=top;spacingLeft=4;spacingRight=4;overflow=hidden;rotatable=0;points=[[0,0.5],[1,0.5]];portConstraint=eastwest;" parent="6lLHNWrCiKYkvcWKfaWd-60" vertex="1">
                    <mxGeometry y="116" width="140" height="30" as="geometry"/>
                </mxCell>
                <mxCell id="6lLHNWrCiKYkvcWKfaWd-78" value="Address" style="swimlane;fontStyle=0;childLayout=stackLayout;horizontal=1;startSize=26;fillColor=none;horizontalStack=0;resizeParent=1;resizeParentMax=0;resizeLast=0;collapsible=1;marginBottom=0;" parent="6lLHNWrCiKYkvcWKfaWd-0" vertex="1">
                    <mxGeometry x="360" y="235" width="165" height="266" as="geometry"/>
                </mxCell>
                <mxCell id="6lLHNWrCiKYkvcWKfaWd-79" value="+Â Id: Guid" style="text;strokeColor=none;fillColor=none;align=left;verticalAlign=top;spacingLeft=4;spacingRight=4;overflow=hidden;rotatable=0;points=[[0,0.5],[1,0.5]];portConstraint=eastwest;" parent="6lLHNWrCiKYkvcWKfaWd-78" vertex="1">
                    <mxGeometry y="26" width="165" height="30" as="geometry"/>
                </mxCell>
                <mxCell id="3gLO8hjb9zUodP_ft_81-0" value="+Â UserId: Guid" style="text;strokeColor=none;fillColor=none;align=left;verticalAlign=top;spacingLeft=4;spacingRight=4;overflow=hidden;rotatable=0;points=[[0,0.5],[1,0.5]];portConstraint=eastwest;" parent="6lLHNWrCiKYkvcWKfaWd-78" vertex="1">
                    <mxGeometry y="56" width="165" height="30" as="geometry"/>
                </mxCell>
                <mxCell id="6lLHNWrCiKYkvcWKfaWd-80" value="+ Street: string" style="text;strokeColor=none;fillColor=none;align=left;verticalAlign=top;spacingLeft=4;spacingRight=4;overflow=hidden;rotatable=0;points=[[0,0.5],[1,0.5]];portConstraint=eastwest;" parent="6lLHNWrCiKYkvcWKfaWd-78" vertex="1">
                    <mxGeometry y="86" width="165" height="30" as="geometry"/>
                </mxCell>
                <mxCell id="6lLHNWrCiKYkvcWKfaWd-81" value="+ AdditionalStreet: string" style="text;strokeColor=none;fillColor=none;align=left;verticalAlign=top;spacingLeft=4;spacingRight=4;overflow=hidden;rotatable=0;points=[[0,0.5],[1,0.5]];portConstraint=eastwest;" parent="6lLHNWrCiKYkvcWKfaWd-78" vertex="1">
                    <mxGeometry y="116" width="165" height="30" as="geometry"/>
                </mxCell>
                <mxCell id="6lLHNWrCiKYkvcWKfaWd-82" value="+ PostalCode: string" style="text;strokeColor=none;fillColor=none;align=left;verticalAlign=top;spacingLeft=4;spacingRight=4;overflow=hidden;rotatable=0;points=[[0,0.5],[1,0.5]];portConstraint=eastwest;" parent="6lLHNWrCiKYkvcWKfaWd-78" vertex="1">
                    <mxGeometry y="146" width="165" height="30" as="geometry"/>
                </mxCell>
                <mxCell id="6lLHNWrCiKYkvcWKfaWd-83" value="+ City: string" style="text;strokeColor=none;fillColor=none;align=left;verticalAlign=top;spacingLeft=4;spacingRight=4;overflow=hidden;rotatable=0;points=[[0,0.5],[1,0.5]];portConstraint=eastwest;" parent="6lLHNWrCiKYkvcWKfaWd-78" vertex="1">
                    <mxGeometry y="176" width="165" height="30" as="geometry"/>
                </mxCell>
                <mxCell id="6lLHNWrCiKYkvcWKfaWd-84" value="+ Region: string" style="text;strokeColor=none;fillColor=none;align=left;verticalAlign=top;spacingLeft=4;spacingRight=4;overflow=hidden;rotatable=0;points=[[0,0.5],[1,0.5]];portConstraint=eastwest;" parent="6lLHNWrCiKYkvcWKfaWd-78" vertex="1">
                    <mxGeometry y="206" width="165" height="30" as="geometry"/>
                </mxCell>
                <mxCell id="6lLHNWrCiKYkvcWKfaWd-85" value="+ Country: string" style="text;strokeColor=none;fillColor=none;align=left;verticalAlign=top;spacingLeft=4;spacingRight=4;overflow=hidden;rotatable=0;points=[[0,0.5],[1,0.5]];portConstraint=eastwest;" parent="6lLHNWrCiKYkvcWKfaWd-78" vertex="1">
                    <mxGeometry y="236" width="165" height="30" as="geometry"/>
                </mxCell>
                <mxCell id="6lLHNWrCiKYkvcWKfaWd-86" value="SocialSecurityNumbers" style="swimlane;fontStyle=0;childLayout=stackLayout;horizontal=1;startSize=26;fillColor=none;horizontalStack=0;resizeParent=1;resizeParentMax=0;resizeLast=0;collapsible=1;marginBottom=0;labelBackgroundColor=none;fontSize=11;" parent="6lLHNWrCiKYkvcWKfaWd-0" vertex="1">
                    <mxGeometry x="363" y="758" width="161" height="130" as="geometry">
                        <mxRectangle x="290" y="480" width="80" height="30" as="alternateBounds"/>
                    </mxGeometry>
                </mxCell>
                <mxCell id="6lLHNWrCiKYkvcWKfaWd-87" value="+ Id: Guid" style="text;strokeColor=none;fillColor=none;align=left;verticalAlign=top;spacingLeft=4;spacingRight=4;overflow=hidden;rotatable=0;points=[[0,0.5],[1,0.5]];portConstraint=eastwest;labelBackgroundColor=none;fontSize=11;" parent="6lLHNWrCiKYkvcWKfaWd-86" vertex="1">
                    <mxGeometry y="26" width="161" height="26" as="geometry"/>
                </mxCell>
                <mxCell id="3gLO8hjb9zUodP_ft_81-13" value="+ UserId: Guid" style="text;strokeColor=none;fillColor=none;align=left;verticalAlign=top;spacingLeft=4;spacingRight=4;overflow=hidden;rotatable=0;points=[[0,0.5],[1,0.5]];portConstraint=eastwest;labelBackgroundColor=none;fontSize=11;" parent="6lLHNWrCiKYkvcWKfaWd-86" vertex="1">
                    <mxGeometry y="52" width="161" height="26" as="geometry"/>
                </mxCell>
                <mxCell id="6lLHNWrCiKYkvcWKfaWd-88" value="+ SsnType: enum" style="text;strokeColor=none;fillColor=none;align=left;verticalAlign=top;spacingLeft=4;spacingRight=4;overflow=hidden;rotatable=0;points=[[0,0.5],[1,0.5]];portConstraint=eastwest;labelBackgroundColor=none;fontSize=11;" parent="6lLHNWrCiKYkvcWKfaWd-86" vertex="1">
                    <mxGeometry y="78" width="161" height="26" as="geometry"/>
                </mxCell>
                <mxCell id="6lLHNWrCiKYkvcWKfaWd-89" value="+ Number: string" style="text;strokeColor=none;fillColor=none;align=left;verticalAlign=top;spacingLeft=4;spacingRight=4;overflow=hidden;rotatable=0;points=[[0,0.5],[1,0.5]];portConstraint=eastwest;labelBackgroundColor=none;fontSize=11;" parent="6lLHNWrCiKYkvcWKfaWd-86" vertex="1">
                    <mxGeometry y="104" width="161" height="26" as="geometry"/>
                </mxCell>
                <mxCell id="6lLHNWrCiKYkvcWKfaWd-90" value="Shares" style="swimlane;fontStyle=0;childLayout=stackLayout;horizontal=1;startSize=26;fillColor=none;horizontalStack=0;resizeParent=1;resizeParentMax=0;resizeLast=0;collapsible=1;marginBottom=0;labelBackgroundColor=none;fontSize=11;" parent="6lLHNWrCiKYkvcWKfaWd-0" vertex="1">
                    <mxGeometry x="366" y="948" width="160" height="130" as="geometry"/>
                </mxCell>
                <mxCell id="6lLHNWrCiKYkvcWKfaWd-91" value="+ Id: Guid" style="text;strokeColor=none;fillColor=none;align=left;verticalAlign=top;spacingLeft=4;spacingRight=4;overflow=hidden;rotatable=0;points=[[0,0.5],[1,0.5]];portConstraint=eastwest;labelBackgroundColor=none;fontSize=11;" parent="6lLHNWrCiKYkvcWKfaWd-90" vertex="1">
                    <mxGeometry y="26" width="160" height="26" as="geometry"/>
                </mxCell>
                <mxCell id="IoU-YvOxV3tLs6gQhQZC-1" value="+ UserId: Guid" style="text;strokeColor=none;fillColor=none;align=left;verticalAlign=top;spacingLeft=4;spacingRight=4;overflow=hidden;rotatable=0;points=[[0,0.5],[1,0.5]];portConstraint=eastwest;labelBackgroundColor=none;fontSize=11;" parent="6lLHNWrCiKYkvcWKfaWd-90" vertex="1">
                    <mxGeometry y="52" width="160" height="26" as="geometry"/>
                </mxCell>
                <mxCell id="IoU-YvOxV3tLs6gQhQZC-0" value="+ DocumentId: Guid" style="text;strokeColor=none;fillColor=none;align=left;verticalAlign=top;spacingLeft=4;spacingRight=4;overflow=hidden;rotatable=0;points=[[0,0.5],[1,0.5]];portConstraint=eastwest;labelBackgroundColor=none;fontSize=11;" parent="6lLHNWrCiKYkvcWKfaWd-90" vertex="1">
                    <mxGeometry y="78" width="160" height="26" as="geometry"/>
                </mxCell>
                <mxCell id="6lLHNWrCiKYkvcWKfaWd-92" value="+ Expires: DateTimeOffset" style="text;strokeColor=none;fillColor=none;align=left;verticalAlign=top;spacingLeft=4;spacingRight=4;overflow=hidden;rotatable=0;points=[[0,0.5],[1,0.5]];portConstraint=eastwest;labelBackgroundColor=none;fontSize=11;" parent="6lLHNWrCiKYkvcWKfaWd-90" vertex="1">
                    <mxGeometry y="104" width="160" height="26" as="geometry"/>
                </mxCell>
                <mxCell id="6lLHNWrCiKYkvcWKfaWd-93" value="ShareDetails" style="swimlane;fontStyle=0;childLayout=stackLayout;horizontal=1;startSize=26;fillColor=none;horizontalStack=0;resizeParent=1;resizeParentMax=0;resizeLast=0;collapsible=1;marginBottom=0;labelBackgroundColor=none;fontSize=11;" parent="6lLHNWrCiKYkvcWKfaWd-0" vertex="1">
                    <mxGeometry x="118" y="895" width="160" height="130" as="geometry"/>
                </mxCell>
                <mxCell id="IoU-YvOxV3tLs6gQhQZC-6" value="+ Id: Guid" style="text;strokeColor=none;fillColor=none;align=left;verticalAlign=top;spacingLeft=4;spacingRight=4;overflow=hidden;rotatable=0;points=[[0,0.5],[1,0.5]];portConstraint=eastwest;labelBackgroundColor=none;fontSize=11;" parent="6lLHNWrCiKYkvcWKfaWd-93" vertex="1">
                    <mxGeometry y="26" width="160" height="26" as="geometry"/>
                </mxCell>
                <mxCell id="6lLHNWrCiKYkvcWKfaWd-94" value="+ ShareId: Guid" style="text;strokeColor=none;fillColor=none;align=left;verticalAlign=top;spacingLeft=4;spacingRight=4;overflow=hidden;rotatable=0;points=[[0,0.5],[1,0.5]];portConstraint=eastwest;labelBackgroundColor=none;fontSize=11;" parent="6lLHNWrCiKYkvcWKfaWd-93" vertex="1">
                    <mxGeometry y="52" width="160" height="26" as="geometry"/>
                </mxCell>
                <mxCell id="6lLHNWrCiKYkvcWKfaWd-95" value="+ DetailType: enum" style="text;strokeColor=none;fillColor=none;align=left;verticalAlign=top;spacingLeft=4;spacingRight=4;overflow=hidden;rotatable=0;points=[[0,0.5],[1,0.5]];portConstraint=eastwest;labelBackgroundColor=none;fontSize=11;" parent="6lLHNWrCiKYkvcWKfaWd-93" vertex="1">
                    <mxGeometry y="78" width="160" height="26" as="geometry"/>
                </mxCell>
                <mxCell id="6lLHNWrCiKYkvcWKfaWd-96" value="+ Description: string" style="text;strokeColor=none;fillColor=none;align=left;verticalAlign=top;spacingLeft=4;spacingRight=4;overflow=hidden;rotatable=0;points=[[0,0.5],[1,0.5]];portConstraint=eastwest;labelBackgroundColor=none;fontSize=11;" parent="6lLHNWrCiKYkvcWKfaWd-93" vertex="1">
                    <mxGeometry y="104" width="160" height="26" as="geometry"/>
                </mxCell>
                <mxCell id="6lLHNWrCiKYkvcWKfaWd-105" value="DocumentSignatures" style="swimlane;fontStyle=0;childLayout=stackLayout;horizontal=1;startSize=26;fillColor=none;horizontalStack=0;resizeParent=1;resizeParentMax=0;resizeLast=0;collapsible=1;marginBottom=0;" parent="6lLHNWrCiKYkvcWKfaWd-0" vertex="1">
                    <mxGeometry x="154" y="1433" width="140" height="86" as="geometry"/>
                </mxCell>
                <mxCell id="6lLHNWrCiKYkvcWKfaWd-106" value="+ Id: Guid" style="text;strokeColor=none;fillColor=none;align=left;verticalAlign=top;spacingLeft=4;spacingRight=4;overflow=hidden;rotatable=0;points=[[0,0.5],[1,0.5]];portConstraint=eastwest;" parent="6lLHNWrCiKYkvcWKfaWd-105" vertex="1">
                    <mxGeometry y="26" width="140" height="30" as="geometry"/>
                </mxCell>
                <mxCell id="IoU-YvOxV3tLs6gQhQZC-12" value="+ DocumentId: Guid" style="text;strokeColor=none;fillColor=none;align=left;verticalAlign=top;spacingLeft=4;spacingRight=4;overflow=hidden;rotatable=0;points=[[0,0.5],[1,0.5]];portConstraint=eastwest;" parent="6lLHNWrCiKYkvcWKfaWd-105" vertex="1">
                    <mxGeometry y="56" width="140" height="30" as="geometry"/>
                </mxCell>
                <mxCell id="6lLHNWrCiKYkvcWKfaWd-107" value="DocumentDetails" style="swimlane;fontStyle=0;childLayout=stackLayout;horizontal=1;startSize=26;fillColor=none;horizontalStack=0;resizeParent=1;resizeParentMax=0;resizeLast=0;collapsible=1;marginBottom=0;" parent="6lLHNWrCiKYkvcWKfaWd-0" vertex="1">
                    <mxGeometry x="125" y="1159" width="170" height="206" as="geometry"/>
                </mxCell>
                <mxCell id="IoU-YvOxV3tLs6gQhQZC-11" value="+ Id: Guid" style="text;strokeColor=none;fillColor=none;align=left;verticalAlign=top;spacingLeft=4;spacingRight=4;overflow=hidden;rotatable=0;points=[[0,0.5],[1,0.5]];portConstraint=eastwest;" parent="6lLHNWrCiKYkvcWKfaWd-107" vertex="1">
                    <mxGeometry y="26" width="170" height="30" as="geometry"/>
                </mxCell>
                <mxCell id="6lLHNWrCiKYkvcWKfaWd-108" value="+ DocumentId: Guid" style="text;strokeColor=none;fillColor=none;align=left;verticalAlign=top;spacingLeft=4;spacingRight=4;overflow=hidden;rotatable=0;points=[[0,0.5],[1,0.5]];portConstraint=eastwest;" parent="6lLHNWrCiKYkvcWKfaWd-107" vertex="1">
                    <mxGeometry y="56" width="170" height="30" as="geometry"/>
                </mxCell>
                <mxCell id="6lLHNWrCiKYkvcWKfaWd-109" value="+ FileName: string" style="text;strokeColor=none;fillColor=none;align=left;verticalAlign=top;spacingLeft=4;spacingRight=4;overflow=hidden;rotatable=0;points=[[0,0.5],[1,0.5]];portConstraint=eastwest;" parent="6lLHNWrCiKYkvcWKfaWd-107" vertex="1">
                    <mxGeometry y="86" width="170" height="30" as="geometry"/>
                </mxCell>
                <mxCell id="6lLHNWrCiKYkvcWKfaWd-110" value="+ Extention: string" style="text;strokeColor=none;fillColor=none;align=left;verticalAlign=top;spacingLeft=4;spacingRight=4;overflow=hidden;rotatable=0;points=[[0,0.5],[1,0.5]];portConstraint=eastwest;" parent="6lLHNWrCiKYkvcWKfaWd-107" vertex="1">
                    <mxGeometry y="116" width="170" height="30" as="geometry"/>
                </mxCell>
                <mxCell id="6lLHNWrCiKYkvcWKfaWd-111" value="+ ContentType: string" style="text;strokeColor=none;fillColor=none;align=left;verticalAlign=top;spacingLeft=4;spacingRight=4;overflow=hidden;rotatable=0;points=[[0,0.5],[1,0.5]];portConstraint=eastwest;" parent="6lLHNWrCiKYkvcWKfaWd-107" vertex="1">
                    <mxGeometry y="146" width="170" height="30" as="geometry"/>
                </mxCell>
                <mxCell id="6lLHNWrCiKYkvcWKfaWd-112" value="+ Length: long" style="text;strokeColor=none;fillColor=none;align=left;verticalAlign=top;spacingLeft=4;spacingRight=4;overflow=hidden;rotatable=0;points=[[0,0.5],[1,0.5]];portConstraint=eastwest;" parent="6lLHNWrCiKYkvcWKfaWd-107" vertex="1">
                    <mxGeometry y="176" width="170" height="30" as="geometry"/>
                </mxCell>
                <mxCell id="3gLO8hjb9zUodP_ft_81-1" value="VerificationCodes" style="swimlane;fontStyle=0;childLayout=stackLayout;horizontal=1;startSize=26;fillColor=none;horizontalStack=0;resizeParent=1;resizeParentMax=0;resizeLast=0;collapsible=1;marginBottom=0;labelBackgroundColor=none;" parent="6lLHNWrCiKYkvcWKfaWd-0" vertex="1">
                    <mxGeometry x="361" y="545" width="164" height="130" as="geometry"/>
                </mxCell>
                <mxCell id="3gLO8hjb9zUodP_ft_81-5" value="+ Id: Guid" style="text;strokeColor=none;fillColor=none;align=left;verticalAlign=top;spacingLeft=4;spacingRight=4;overflow=hidden;rotatable=0;points=[[0,0.5],[1,0.5]];portConstraint=eastwest;labelBackgroundColor=none;" parent="3gLO8hjb9zUodP_ft_81-1" vertex="1">
                    <mxGeometry y="26" width="164" height="26" as="geometry"/>
                </mxCell>
                <mxCell id="3gLO8hjb9zUodP_ft_81-2" value="+ UserId: Guid" style="text;strokeColor=none;fillColor=none;align=left;verticalAlign=top;spacingLeft=4;spacingRight=4;overflow=hidden;rotatable=0;points=[[0,0.5],[1,0.5]];portConstraint=eastwest;labelBackgroundColor=none;" parent="3gLO8hjb9zUodP_ft_81-1" vertex="1">
                    <mxGeometry y="52" width="164" height="26" as="geometry"/>
                </mxCell>
                <mxCell id="3gLO8hjb9zUodP_ft_81-3" value="+ Type: enum" style="text;strokeColor=none;fillColor=none;align=left;verticalAlign=top;spacingLeft=4;spacingRight=4;overflow=hidden;rotatable=0;points=[[0,0.5],[1,0.5]];portConstraint=eastwest;labelBackgroundColor=none;" parent="3gLO8hjb9zUodP_ft_81-1" vertex="1">
                    <mxGeometry y="78" width="164" height="26" as="geometry"/>
                </mxCell>
                <mxCell id="3gLO8hjb9zUodP_ft_81-4" value="+ Code: string" style="text;strokeColor=none;fillColor=none;align=left;verticalAlign=top;spacingLeft=4;spacingRight=4;overflow=hidden;rotatable=0;points=[[0,0.5],[1,0.5]];portConstraint=eastwest;labelBackgroundColor=none;" parent="3gLO8hjb9zUodP_ft_81-1" vertex="1">
                    <mxGeometry y="104" width="164" height="26" as="geometry"/>
                </mxCell>
                <mxCell id="3gLO8hjb9zUodP_ft_81-9" style="edgeStyle=orthogonalEdgeStyle;html=1;exitX=1;exitY=0.5;exitDx=0;exitDy=0;entryX=0;entryY=0.5;entryDx=0;entryDy=0;" parent="6lLHNWrCiKYkvcWKfaWd-0" source="3gLO8hjb9zUodP_ft_81-0" target="6lLHNWrCiKYkvcWKfaWd-2" edge="1">
                    <mxGeometry relative="1" as="geometry"/>
                </mxCell>
                <mxCell id="3gLO8hjb9zUodP_ft_81-10" style="edgeStyle=orthogonalEdgeStyle;html=1;exitX=1;exitY=0.5;exitDx=0;exitDy=0;entryX=0;entryY=0.5;entryDx=0;entryDy=0;" parent="6lLHNWrCiKYkvcWKfaWd-0" source="3gLO8hjb9zUodP_ft_81-2" target="6lLHNWrCiKYkvcWKfaWd-2" edge="1">
                    <mxGeometry relative="1" as="geometry">
                        <mxPoint x="739.5294117647059" y="576.1764705882351" as="targetPoint"/>
                    </mxGeometry>
                </mxCell>
                <mxCell id="3gLO8hjb9zUodP_ft_81-14" style="edgeStyle=orthogonalEdgeStyle;html=1;exitX=1;exitY=0.5;exitDx=0;exitDy=0;entryX=0;entryY=0.5;entryDx=0;entryDy=0;" parent="6lLHNWrCiKYkvcWKfaWd-0" source="3gLO8hjb9zUodP_ft_81-13" target="6lLHNWrCiKYkvcWKfaWd-2" edge="1">
                    <mxGeometry relative="1" as="geometry"/>
                </mxCell>
                <mxCell id="IoU-YvOxV3tLs6gQhQZC-2" style="edgeStyle=orthogonalEdgeStyle;html=1;exitX=1;exitY=0.5;exitDx=0;exitDy=0;entryX=0;entryY=0.5;entryDx=0;entryDy=0;" parent="6lLHNWrCiKYkvcWKfaWd-0" source="6lLHNWrCiKYkvcWKfaWd-62" target="6lLHNWrCiKYkvcWKfaWd-2" edge="1">
                    <mxGeometry relative="1" as="geometry"/>
                </mxCell>
                <mxCell id="IoU-YvOxV3tLs6gQhQZC-3" style="edgeStyle=orthogonalEdgeStyle;html=1;exitX=1;exitY=0.5;exitDx=0;exitDy=0;entryX=0;entryY=0.5;entryDx=0;entryDy=0;" parent="6lLHNWrCiKYkvcWKfaWd-0" source="IoU-YvOxV3tLs6gQhQZC-1" target="6lLHNWrCiKYkvcWKfaWd-2" edge="1">
                    <mxGeometry relative="1" as="geometry"/>
                </mxCell>
                <mxCell id="IoU-YvOxV3tLs6gQhQZC-5" style="edgeStyle=orthogonalEdgeStyle;html=1;exitX=0;exitY=0.5;exitDx=0;exitDy=0;entryX=0;entryY=0.5;entryDx=0;entryDy=0;" parent="6lLHNWrCiKYkvcWKfaWd-0" source="IoU-YvOxV3tLs6gQhQZC-0" target="6lLHNWrCiKYkvcWKfaWd-61" edge="1">
                    <mxGeometry relative="1" as="geometry">
                        <Array as="points">
                            <mxPoint x="338" y="1039"/>
                            <mxPoint x="338" y="1150"/>
                        </Array>
                    </mxGeometry>
                </mxCell>
                <mxCell id="IoU-YvOxV3tLs6gQhQZC-7" style="edgeStyle=orthogonalEdgeStyle;html=1;exitX=1;exitY=0.5;exitDx=0;exitDy=0;entryX=0;entryY=0.5;entryDx=0;entryDy=0;" parent="6lLHNWrCiKYkvcWKfaWd-0" source="6lLHNWrCiKYkvcWKfaWd-94" target="6lLHNWrCiKYkvcWKfaWd-91" edge="1">
                    <mxGeometry relative="1" as="geometry"/>
                </mxCell>
                <mxCell id="IoU-YvOxV3tLs6gQhQZC-8" style="edgeStyle=orthogonalEdgeStyle;html=1;exitX=1;exitY=0.5;exitDx=0;exitDy=0;entryX=0;entryY=0.5;entryDx=0;entryDy=0;" parent="6lLHNWrCiKYkvcWKfaWd-0" source="6lLHNWrCiKYkvcWKfaWd-108" target="6lLHNWrCiKYkvcWKfaWd-61" edge="1">
                    <mxGeometry relative="1" as="geometry"/>
                </mxCell>
                <mxCell id="IoU-YvOxV3tLs6gQhQZC-10" style="edgeStyle=orthogonalEdgeStyle;html=1;exitX=1;exitY=0.5;exitDx=0;exitDy=0;entryX=0;entryY=0.5;entryDx=0;entryDy=0;" parent="6lLHNWrCiKYkvcWKfaWd-0" source="IoU-YvOxV3tLs6gQhQZC-12" target="6lLHNWrCiKYkvcWKfaWd-61" edge="1">
                    <mxGeometry relative="1" as="geometry"/>
                </mxCell>
                <mxCell id="IoU-YvOxV3tLs6gQhQZC-13" style="edgeStyle=orthogonalEdgeStyle;html=1;exitX=0;exitY=0.5;exitDx=0;exitDy=0;entryX=1;entryY=0.5;entryDx=0;entryDy=0;" parent="6lLHNWrCiKYkvcWKfaWd-0" source="3gLO8hjb9zUodP_ft_81-11" target="6lLHNWrCiKYkvcWKfaWd-2" edge="1">
                    <mxGeometry relative="1" as="geometry"/>
                </mxCell>
                <mxCell id="6lLHNWrCiKYkvcWKfaWd-56" value="RefreshTokens" style="swimlane;fontStyle=0;childLayout=stackLayout;horizontal=1;startSize=26;fillColor=none;horizontalStack=0;resizeParent=1;resizeParentMax=0;resizeLast=0;collapsible=1;marginBottom=0;" parent="6lLHNWrCiKYkvcWKfaWd-0" vertex="1">
                    <mxGeometry x="1100" y="1338" width="272" height="208" as="geometry"/>
                </mxCell>
                <mxCell id="6lLHNWrCiKYkvcWKfaWd-57" value="+ Id: Guid" style="text;strokeColor=none;fillColor=none;align=left;verticalAlign=top;spacingLeft=4;spacingRight=4;overflow=hidden;rotatable=0;points=[[0,0.5],[1,0.5]];portConstraint=eastwest;" parent="6lLHNWrCiKYkvcWKfaWd-56" vertex="1">
                    <mxGeometry y="26" width="272" height="26" as="geometry"/>
                </mxCell>
                <mxCell id="IoU-YvOxV3tLs6gQhQZC-16" value="+ UserId: Guid" style="text;strokeColor=none;fillColor=none;align=left;verticalAlign=top;spacingLeft=4;spacingRight=4;overflow=hidden;rotatable=0;points=[[0,0.5],[1,0.5]];portConstraint=eastwest;" parent="6lLHNWrCiKYkvcWKfaWd-56" vertex="1">
                    <mxGeometry y="52" width="272" height="26" as="geometry"/>
                </mxCell>
                <mxCell id="6lLHNWrCiKYkvcWKfaWd-59" value="+ Token: string" style="text;strokeColor=none;fillColor=none;align=left;verticalAlign=top;spacingLeft=4;spacingRight=4;overflow=hidden;rotatable=0;points=[[0,0.5],[1,0.5]];portConstraint=eastwest;" parent="6lLHNWrCiKYkvcWKfaWd-56" vertex="1">
                    <mxGeometry y="78" width="272" height="26" as="geometry"/>
                </mxCell>
                <mxCell id="6lLHNWrCiKYkvcWKfaWd-58" value="+ Expires: DateTimeOffset" style="text;strokeColor=none;fillColor=none;align=left;verticalAlign=top;spacingLeft=4;spacingRight=4;overflow=hidden;rotatable=0;points=[[0,0.5],[1,0.5]];portConstraint=eastwest;" parent="6lLHNWrCiKYkvcWKfaWd-56" vertex="1">
                    <mxGeometry y="104" width="272" height="26" as="geometry"/>
                </mxCell>
                <mxCell id="0" value="+ IsExpired: Expires &lt; DateTimeOffset.UtcNow" style="text;strokeColor=none;fillColor=none;align=left;verticalAlign=top;spacingLeft=4;spacingRight=4;overflow=hidden;rotatable=0;points=[[0,0.5],[1,0.5]];portConstraint=eastwest;" vertex="1" parent="6lLHNWrCiKYkvcWKfaWd-56">
                    <mxGeometry y="130" width="272" height="26" as="geometry"/>
                </mxCell>
                <mxCell id="1" value="+ Revoked: DateTimeOffset" style="text;strokeColor=none;fillColor=none;align=left;verticalAlign=top;spacingLeft=4;spacingRight=4;overflow=hidden;rotatable=0;points=[[0,0.5],[1,0.5]];portConstraint=eastwest;" vertex="1" parent="6lLHNWrCiKYkvcWKfaWd-56">
                    <mxGeometry y="156" width="272" height="26" as="geometry"/>
                </mxCell>
                <mxCell id="2" value="+ IsRevoked: bool" style="text;strokeColor=none;fillColor=none;align=left;verticalAlign=top;spacingLeft=4;spacingRight=4;overflow=hidden;rotatable=0;points=[[0,0.5],[1,0.5]];portConstraint=eastwest;" vertex="1" parent="6lLHNWrCiKYkvcWKfaWd-56">
                    <mxGeometry y="182" width="272" height="26" as="geometry"/>
                </mxCell>
                <mxCell id="6lLHNWrCiKYkvcWKfaWd-73" value="LoginAttempts" style="swimlane;fontStyle=0;childLayout=stackLayout;horizontal=1;startSize=26;fillColor=none;horizontalStack=0;resizeParent=1;resizeParentMax=0;resizeLast=0;collapsible=1;marginBottom=0;labelBackgroundColor=none;fontSize=11;" parent="6lLHNWrCiKYkvcWKfaWd-0" vertex="1">
                    <mxGeometry x="827" y="1453" width="150" height="156" as="geometry"/>
                </mxCell>
                <mxCell id="6lLHNWrCiKYkvcWKfaWd-74" value="+ Id: Guid" style="text;strokeColor=none;fillColor=none;align=left;verticalAlign=top;spacingLeft=4;spacingRight=4;overflow=hidden;rotatable=0;points=[[0,0.5],[1,0.5]];portConstraint=eastwest;labelBackgroundColor=none;fontSize=11;" parent="6lLHNWrCiKYkvcWKfaWd-73" vertex="1">
                    <mxGeometry y="26" width="150" height="26" as="geometry"/>
                </mxCell>
                <mxCell id="IoU-YvOxV3tLs6gQhQZC-19" value="+ UserId: Guid" style="text;strokeColor=none;fillColor=none;align=left;verticalAlign=top;spacingLeft=4;spacingRight=4;overflow=hidden;rotatable=0;points=[[0,0.5],[1,0.5]];portConstraint=eastwest;labelBackgroundColor=none;fontSize=11;" parent="6lLHNWrCiKYkvcWKfaWd-73" vertex="1">
                    <mxGeometry y="52" width="150" height="26" as="geometry"/>
                </mxCell>
                <mxCell id="6lLHNWrCiKYkvcWKfaWd-75" value="+ IsSuccessful: bool" style="text;strokeColor=none;fillColor=none;align=left;verticalAlign=top;spacingLeft=4;spacingRight=4;overflow=hidden;rotatable=0;points=[[0,0.5],[1,0.5]];portConstraint=eastwest;labelBackgroundColor=none;fontSize=11;" parent="6lLHNWrCiKYkvcWKfaWd-73" vertex="1">
                    <mxGeometry y="78" width="150" height="26" as="geometry"/>
                </mxCell>
                <mxCell id="6lLHNWrCiKYkvcWKfaWd-76" value="+ DeviceType: enum" style="text;strokeColor=none;fillColor=none;align=left;verticalAlign=top;spacingLeft=4;spacingRight=4;overflow=hidden;rotatable=0;points=[[0,0.5],[1,0.5]];portConstraint=eastwest;labelBackgroundColor=none;fontSize=11;" parent="6lLHNWrCiKYkvcWKfaWd-73" vertex="1">
                    <mxGeometry y="104" width="150" height="26" as="geometry"/>
                </mxCell>
                <mxCell id="6lLHNWrCiKYkvcWKfaWd-77" value="+ Time: DateTimeOffset" style="text;strokeColor=none;fillColor=none;align=left;verticalAlign=top;spacingLeft=4;spacingRight=4;overflow=hidden;rotatable=0;points=[[0,0.5],[1,0.5]];portConstraint=eastwest;labelBackgroundColor=none;fontSize=11;" parent="6lLHNWrCiKYkvcWKfaWd-73" vertex="1">
                    <mxGeometry y="130" width="150" height="26" as="geometry"/>
                </mxCell>
                <mxCell id="6lLHNWrCiKYkvcWKfaWd-113" value="DeviceTokens" style="swimlane;fontStyle=0;childLayout=stackLayout;horizontal=1;startSize=26;fillColor=none;horizontalStack=0;resizeParent=1;resizeParentMax=0;resizeLast=0;collapsible=1;marginBottom=0;" parent="6lLHNWrCiKYkvcWKfaWd-0" vertex="1">
                    <mxGeometry x="1101" y="1604.0000000000002" width="170" height="130" as="geometry"/>
                </mxCell>
                <mxCell id="6lLHNWrCiKYkvcWKfaWd-114" value="+ Id: Guid" style="text;strokeColor=none;fillColor=none;align=left;verticalAlign=top;spacingLeft=4;spacingRight=4;overflow=hidden;rotatable=0;points=[[0,0.5],[1,0.5]];portConstraint=eastwest;" parent="6lLHNWrCiKYkvcWKfaWd-113" vertex="1">
                    <mxGeometry y="26" width="170" height="26" as="geometry"/>
                </mxCell>
                <mxCell id="IoU-YvOxV3tLs6gQhQZC-15" value="+ UserId: Guid" style="text;strokeColor=none;fillColor=none;align=left;verticalAlign=top;spacingLeft=4;spacingRight=4;overflow=hidden;rotatable=0;points=[[0,0.5],[1,0.5]];portConstraint=eastwest;" parent="6lLHNWrCiKYkvcWKfaWd-113" vertex="1">
                    <mxGeometry y="52" width="170" height="26" as="geometry"/>
                </mxCell>
                <mxCell id="6lLHNWrCiKYkvcWKfaWd-115" value="+ DeviceType: enum" style="text;strokeColor=none;fillColor=none;align=left;verticalAlign=top;spacingLeft=4;spacingRight=4;overflow=hidden;rotatable=0;points=[[0,0.5],[1,0.5]];portConstraint=eastwest;" parent="6lLHNWrCiKYkvcWKfaWd-113" vertex="1">
                    <mxGeometry y="78" width="170" height="26" as="geometry"/>
                </mxCell>
                <mxCell id="6lLHNWrCiKYkvcWKfaWd-116" value="+ Token: string" style="text;strokeColor=none;fillColor=none;align=left;verticalAlign=top;spacingLeft=4;spacingRight=4;overflow=hidden;rotatable=0;points=[[0,0.5],[1,0.5]];portConstraint=eastwest;" parent="6lLHNWrCiKYkvcWKfaWd-113" vertex="1">
                    <mxGeometry y="104" width="170" height="26" as="geometry"/>
                </mxCell>
                <mxCell id="6lLHNWrCiKYkvcWKfaWd-17" value="UserRole *" style="swimlane;fontStyle=0;childLayout=stackLayout;horizontal=1;startSize=26;fillColor=none;horizontalStack=0;resizeParent=1;resizeParentMax=0;resizeLast=0;collapsible=1;marginBottom=0;" parent="6lLHNWrCiKYkvcWKfaWd-0" vertex="1">
                    <mxGeometry x="1101" y="580" width="212" height="86" as="geometry"/>
                </mxCell>
                <mxCell id="6lLHNWrCiKYkvcWKfaWd-18" value="+ UserId: Guid" style="text;strokeColor=none;fillColor=none;align=left;verticalAlign=top;spacingLeft=4;spacingRight=4;overflow=hidden;rotatable=0;points=[[0,0.5],[1,0.5]];portConstraint=eastwest;" parent="6lLHNWrCiKYkvcWKfaWd-17" vertex="1">
                    <mxGeometry y="26" width="212" height="30" as="geometry"/>
                </mxCell>
                <mxCell id="6lLHNWrCiKYkvcWKfaWd-19" value="+ RoleId: Guid" style="text;strokeColor=none;fillColor=none;align=left;verticalAlign=top;spacingLeft=4;spacingRight=4;overflow=hidden;rotatable=0;points=[[0,0.5],[1,0.5]];portConstraint=eastwest;" parent="6lLHNWrCiKYkvcWKfaWd-17" vertex="1">
                    <mxGeometry y="56" width="212" height="30" as="geometry"/>
                </mxCell>
                <mxCell id="6lLHNWrCiKYkvcWKfaWd-30" value="Logins *" style="swimlane;fontStyle=0;childLayout=stackLayout;horizontal=1;startSize=26;fillColor=none;horizontalStack=0;resizeParent=1;resizeParentMax=0;resizeLast=0;collapsible=1;marginBottom=0;" parent="6lLHNWrCiKYkvcWKfaWd-0" vertex="1">
                    <mxGeometry x="1101" y="743" width="212" height="146" as="geometry"/>
                </mxCell>
                <mxCell id="6lLHNWrCiKYkvcWKfaWd-31" value="+ LoginProvider: string" style="text;strokeColor=none;fillColor=none;align=left;verticalAlign=top;spacingLeft=4;spacingRight=4;overflow=hidden;rotatable=0;points=[[0,0.5],[1,0.5]];portConstraint=eastwest;" parent="6lLHNWrCiKYkvcWKfaWd-30" vertex="1">
                    <mxGeometry y="26" width="212" height="30" as="geometry"/>
                </mxCell>
                <mxCell id="6lLHNWrCiKYkvcWKfaWd-32" value="+ ProviderKey: string" style="text;strokeColor=none;fillColor=none;align=left;verticalAlign=top;spacingLeft=4;spacingRight=4;overflow=hidden;rotatable=0;points=[[0,0.5],[1,0.5]];portConstraint=eastwest;" parent="6lLHNWrCiKYkvcWKfaWd-30" vertex="1">
                    <mxGeometry y="56" width="212" height="30" as="geometry"/>
                </mxCell>
                <mxCell id="6lLHNWrCiKYkvcWKfaWd-33" value="+ ProviderDisplayName: string" style="text;strokeColor=none;fillColor=none;align=left;verticalAlign=top;spacingLeft=4;spacingRight=4;overflow=hidden;rotatable=0;points=[[0,0.5],[1,0.5]];portConstraint=eastwest;" parent="6lLHNWrCiKYkvcWKfaWd-30" vertex="1">
                    <mxGeometry y="86" width="212" height="30" as="geometry"/>
                </mxCell>
                <mxCell id="6lLHNWrCiKYkvcWKfaWd-34" value="+ UserId: Guid" style="text;strokeColor=none;fillColor=none;align=left;verticalAlign=top;spacingLeft=4;spacingRight=4;overflow=hidden;rotatable=0;points=[[0,0.5],[1,0.5]];portConstraint=eastwest;" parent="6lLHNWrCiKYkvcWKfaWd-30" vertex="1">
                    <mxGeometry y="116" width="212" height="30" as="geometry"/>
                </mxCell>
                <mxCell id="6lLHNWrCiKYkvcWKfaWd-35" value="Claims *" style="swimlane;fontStyle=0;childLayout=stackLayout;horizontal=1;startSize=26;fillColor=none;horizontalStack=0;resizeParent=1;resizeParentMax=0;resizeLast=0;collapsible=1;marginBottom=0;" parent="6lLHNWrCiKYkvcWKfaWd-0" vertex="1">
                    <mxGeometry x="1100" y="1138" width="212" height="146" as="geometry"/>
                </mxCell>
                <mxCell id="6lLHNWrCiKYkvcWKfaWd-36" value="+ Id: int" style="text;strokeColor=none;fillColor=none;align=left;verticalAlign=top;spacingLeft=4;spacingRight=4;overflow=hidden;rotatable=0;points=[[0,0.5],[1,0.5]];portConstraint=eastwest;" parent="6lLHNWrCiKYkvcWKfaWd-35" vertex="1">
                    <mxGeometry y="26" width="212" height="30" as="geometry"/>
                </mxCell>
                <mxCell id="6lLHNWrCiKYkvcWKfaWd-37" value="+ UserId: Guid" style="text;strokeColor=none;fillColor=none;align=left;verticalAlign=top;spacingLeft=4;spacingRight=4;overflow=hidden;rotatable=0;points=[[0,0.5],[1,0.5]];portConstraint=eastwest;" parent="6lLHNWrCiKYkvcWKfaWd-35" vertex="1">
                    <mxGeometry y="56" width="212" height="30" as="geometry"/>
                </mxCell>
                <mxCell id="6lLHNWrCiKYkvcWKfaWd-38" value="+ ClaimType: string" style="text;strokeColor=none;fillColor=none;align=left;verticalAlign=top;spacingLeft=4;spacingRight=4;overflow=hidden;rotatable=0;points=[[0,0.5],[1,0.5]];portConstraint=eastwest;" parent="6lLHNWrCiKYkvcWKfaWd-35" vertex="1">
                    <mxGeometry y="86" width="212" height="30" as="geometry"/>
                </mxCell>
                <mxCell id="6lLHNWrCiKYkvcWKfaWd-39" value="+ ClaimValue: string" style="text;strokeColor=none;fillColor=none;align=left;verticalAlign=top;spacingLeft=4;spacingRight=4;overflow=hidden;rotatable=0;points=[[0,0.5],[1,0.5]];portConstraint=eastwest;" parent="6lLHNWrCiKYkvcWKfaWd-35" vertex="1">
                    <mxGeometry y="116" width="212" height="30" as="geometry"/>
                </mxCell>
                <mxCell id="6lLHNWrCiKYkvcWKfaWd-40" value="Tokens *" style="swimlane;fontStyle=0;childLayout=stackLayout;horizontal=1;startSize=26;fillColor=none;horizontalStack=0;resizeParent=1;resizeParentMax=0;resizeLast=0;collapsible=1;marginBottom=0;" parent="6lLHNWrCiKYkvcWKfaWd-0" vertex="1">
                    <mxGeometry x="1100" y="949" width="213" height="146" as="geometry"/>
                </mxCell>
                <mxCell id="6lLHNWrCiKYkvcWKfaWd-41" value="+ UserId: Guid" style="text;strokeColor=none;fillColor=none;align=left;verticalAlign=top;spacingLeft=4;spacingRight=4;overflow=hidden;rotatable=0;points=[[0,0.5],[1,0.5]];portConstraint=eastwest;" parent="6lLHNWrCiKYkvcWKfaWd-40" vertex="1">
                    <mxGeometry y="26" width="213" height="30" as="geometry"/>
                </mxCell>
                <mxCell id="6lLHNWrCiKYkvcWKfaWd-42" value="+ LoginProvider: string" style="text;strokeColor=none;fillColor=none;align=left;verticalAlign=top;spacingLeft=4;spacingRight=4;overflow=hidden;rotatable=0;points=[[0,0.5],[1,0.5]];portConstraint=eastwest;" parent="6lLHNWrCiKYkvcWKfaWd-40" vertex="1">
                    <mxGeometry y="56" width="213" height="30" as="geometry"/>
                </mxCell>
                <mxCell id="6lLHNWrCiKYkvcWKfaWd-43" value="+ Name: string" style="text;strokeColor=none;fillColor=none;align=left;verticalAlign=top;spacingLeft=4;spacingRight=4;overflow=hidden;rotatable=0;points=[[0,0.5],[1,0.5]];portConstraint=eastwest;" parent="6lLHNWrCiKYkvcWKfaWd-40" vertex="1">
                    <mxGeometry y="86" width="213" height="30" as="geometry"/>
                </mxCell>
                <mxCell id="6lLHNWrCiKYkvcWKfaWd-44" value="+ Value: string" style="text;strokeColor=none;fillColor=none;align=left;verticalAlign=top;spacingLeft=4;spacingRight=4;overflow=hidden;rotatable=0;points=[[0,0.5],[1,0.5]];portConstraint=eastwest;" parent="6lLHNWrCiKYkvcWKfaWd-40" vertex="1">
                    <mxGeometry y="116" width="213" height="30" as="geometry"/>
                </mxCell>
                <mxCell id="6lLHNWrCiKYkvcWKfaWd-97" value="UserInformation" style="swimlane;fontStyle=0;childLayout=stackLayout;horizontal=1;startSize=26;fillColor=none;horizontalStack=0;resizeParent=1;resizeParentMax=0;resizeLast=0;collapsible=1;marginBottom=0;labelBackgroundColor=none;fontSize=11;" parent="6lLHNWrCiKYkvcWKfaWd-0" vertex="1">
                    <mxGeometry x="1102" y="278" width="162" height="234" as="geometry">
                        <mxRectangle x="290" y="480" width="80" height="30" as="alternateBounds"/>
                    </mxGeometry>
                </mxCell>
                <mxCell id="6lLHNWrCiKYkvcWKfaWd-98" value="+ Id: Guid" style="text;strokeColor=none;fillColor=none;align=left;verticalAlign=top;spacingLeft=4;spacingRight=4;overflow=hidden;rotatable=0;points=[[0,0.5],[1,0.5]];portConstraint=eastwest;labelBackgroundColor=none;fontSize=11;" parent="6lLHNWrCiKYkvcWKfaWd-97" vertex="1">
                    <mxGeometry y="26" width="162" height="26" as="geometry"/>
                </mxCell>
                <mxCell id="3gLO8hjb9zUodP_ft_81-11" value="+ UserId: Guid" style="text;strokeColor=none;fillColor=none;align=left;verticalAlign=top;spacingLeft=4;spacingRight=4;overflow=hidden;rotatable=0;points=[[0,0.5],[1,0.5]];portConstraint=eastwest;labelBackgroundColor=none;fontSize=11;" parent="6lLHNWrCiKYkvcWKfaWd-97" vertex="1">
                    <mxGeometry y="52" width="162" height="26" as="geometry"/>
                </mxCell>
                <mxCell id="6lLHNWrCiKYkvcWKfaWd-99" value="+ Firstname: string" style="text;strokeColor=none;fillColor=none;align=left;verticalAlign=top;spacingLeft=4;spacingRight=4;overflow=hidden;rotatable=0;points=[[0,0.5],[1,0.5]];portConstraint=eastwest;labelBackgroundColor=none;fontSize=11;" parent="6lLHNWrCiKYkvcWKfaWd-97" vertex="1">
                    <mxGeometry y="78" width="162" height="26" as="geometry"/>
                </mxCell>
                <mxCell id="6lLHNWrCiKYkvcWKfaWd-100" value="+ Middlenames: string" style="text;strokeColor=none;fillColor=none;align=left;verticalAlign=top;spacingLeft=4;spacingRight=4;overflow=hidden;rotatable=0;points=[[0,0.5],[1,0.5]];portConstraint=eastwest;labelBackgroundColor=none;fontSize=11;" parent="6lLHNWrCiKYkvcWKfaWd-97" vertex="1">
                    <mxGeometry y="104" width="162" height="26" as="geometry"/>
                </mxCell>
                <mxCell id="6lLHNWrCiKYkvcWKfaWd-101" value="+ Lastname: string" style="text;strokeColor=none;fillColor=none;align=left;verticalAlign=top;spacingLeft=4;spacingRight=4;overflow=hidden;rotatable=0;points=[[0,0.5],[1,0.5]];portConstraint=eastwest;labelBackgroundColor=none;fontSize=11;" parent="6lLHNWrCiKYkvcWKfaWd-97" vertex="1">
                    <mxGeometry y="130" width="162" height="26" as="geometry"/>
                </mxCell>
                <mxCell id="6lLHNWrCiKYkvcWKfaWd-102" value="+ DateOfBirth: DateTimeOffset" style="text;strokeColor=none;fillColor=none;align=left;verticalAlign=top;spacingLeft=4;spacingRight=4;overflow=hidden;rotatable=0;points=[[0,0.5],[1,0.5]];portConstraint=eastwest;labelBackgroundColor=none;fontSize=11;" parent="6lLHNWrCiKYkvcWKfaWd-97" vertex="1">
                    <mxGeometry y="156" width="162" height="26" as="geometry"/>
                </mxCell>
                <mxCell id="6lLHNWrCiKYkvcWKfaWd-103" value="+ Nationality: string" style="text;strokeColor=none;fillColor=none;align=left;verticalAlign=top;spacingLeft=4;spacingRight=4;overflow=hidden;rotatable=0;points=[[0,0.5],[1,0.5]];portConstraint=eastwest;labelBackgroundColor=none;fontSize=11;" parent="6lLHNWrCiKYkvcWKfaWd-97" vertex="1">
                    <mxGeometry y="182" width="162" height="26" as="geometry"/>
                </mxCell>
                <mxCell id="6lLHNWrCiKYkvcWKfaWd-104" value="+ SexType: enum" style="text;strokeColor=none;fillColor=none;align=left;verticalAlign=top;spacingLeft=4;spacingRight=4;overflow=hidden;rotatable=0;points=[[0,0.5],[1,0.5]];portConstraint=eastwest;labelBackgroundColor=none;fontSize=11;" parent="6lLHNWrCiKYkvcWKfaWd-97" vertex="1">
                    <mxGeometry y="208" width="162" height="26" as="geometry"/>
                </mxCell>
                <mxCell id="IoU-YvOxV3tLs6gQhQZC-9" style="edgeStyle=orthogonalEdgeStyle;html=1;exitX=1;exitY=0.5;exitDx=0;exitDy=0;entryX=0;entryY=0.5;entryDx=0;entryDy=0;" parent="6lLHNWrCiKYkvcWKfaWd-0" source="6lLHNWrCiKYkvcWKfaWd-19" target="6lLHNWrCiKYkvcWKfaWd-21" edge="1">
                    <mxGeometry relative="1" as="geometry"/>
                </mxCell>
                <mxCell id="6lLHNWrCiKYkvcWKfaWd-20" value="Role *" style="swimlane;fontStyle=0;childLayout=stackLayout;horizontal=1;startSize=26;fillColor=none;horizontalStack=0;resizeParent=1;resizeParentMax=0;resizeLast=0;collapsible=1;marginBottom=0;" parent="6lLHNWrCiKYkvcWKfaWd-0" vertex="1">
                    <mxGeometry x="1469" y="610" width="212" height="146" as="geometry"/>
                </mxCell>
                <mxCell id="6lLHNWrCiKYkvcWKfaWd-21" value="+ Id: Guid" style="text;strokeColor=none;fillColor=none;align=left;verticalAlign=top;spacingLeft=4;spacingRight=4;overflow=hidden;rotatable=0;points=[[0,0.5],[1,0.5]];portConstraint=eastwest;" parent="6lLHNWrCiKYkvcWKfaWd-20" vertex="1">
                    <mxGeometry y="26" width="212" height="30" as="geometry"/>
                </mxCell>
                <mxCell id="6lLHNWrCiKYkvcWKfaWd-22" value="+ Name: string" style="text;strokeColor=none;fillColor=none;align=left;verticalAlign=top;spacingLeft=4;spacingRight=4;overflow=hidden;rotatable=0;points=[[0,0.5],[1,0.5]];portConstraint=eastwest;" parent="6lLHNWrCiKYkvcWKfaWd-20" vertex="1">
                    <mxGeometry y="56" width="212" height="30" as="geometry"/>
                </mxCell>
                <mxCell id="6lLHNWrCiKYkvcWKfaWd-23" value="+ NormalizedName: string" style="text;strokeColor=none;fillColor=none;align=left;verticalAlign=top;spacingLeft=4;spacingRight=4;overflow=hidden;rotatable=0;points=[[0,0.5],[1,0.5]];portConstraint=eastwest;" parent="6lLHNWrCiKYkvcWKfaWd-20" vertex="1">
                    <mxGeometry y="86" width="212" height="30" as="geometry"/>
                </mxCell>
                <mxCell id="6lLHNWrCiKYkvcWKfaWd-24" value="+ ConcurrencyStamp: string" style="text;strokeColor=none;fillColor=none;align=left;verticalAlign=top;spacingLeft=4;spacingRight=4;overflow=hidden;rotatable=0;points=[[0,0.5],[1,0.5]];portConstraint=eastwest;" parent="6lLHNWrCiKYkvcWKfaWd-20" vertex="1">
                    <mxGeometry y="116" width="212" height="30" as="geometry"/>
                </mxCell>
                <mxCell id="6lLHNWrCiKYkvcWKfaWd-25" value="RoleClaims *" style="swimlane;fontStyle=0;childLayout=stackLayout;horizontal=1;startSize=26;fillColor=none;horizontalStack=0;resizeParent=1;resizeParentMax=0;resizeLast=0;collapsible=1;marginBottom=0;" parent="6lLHNWrCiKYkvcWKfaWd-0" vertex="1">
                    <mxGeometry x="1469" y="823" width="212" height="146" as="geometry"/>
                </mxCell>
                <mxCell id="6lLHNWrCiKYkvcWKfaWd-26" value="+ Id: int" style="text;strokeColor=none;fillColor=none;align=left;verticalAlign=top;spacingLeft=4;spacingRight=4;overflow=hidden;rotatable=0;points=[[0,0.5],[1,0.5]];portConstraint=eastwest;" parent="6lLHNWrCiKYkvcWKfaWd-25" vertex="1">
                    <mxGeometry y="26" width="212" height="30" as="geometry"/>
                </mxCell>
                <mxCell id="6lLHNWrCiKYkvcWKfaWd-27" value="+ RoleId: Guid" style="text;strokeColor=none;fillColor=none;align=left;verticalAlign=top;spacingLeft=4;spacingRight=4;overflow=hidden;rotatable=0;points=[[0,0.5],[1,0.5]];portConstraint=eastwest;" parent="6lLHNWrCiKYkvcWKfaWd-25" vertex="1">
                    <mxGeometry y="56" width="212" height="30" as="geometry"/>
                </mxCell>
                <mxCell id="6lLHNWrCiKYkvcWKfaWd-28" value="+ ClaimType: string" style="text;strokeColor=none;fillColor=none;align=left;verticalAlign=top;spacingLeft=4;spacingRight=4;overflow=hidden;rotatable=0;points=[[0,0.5],[1,0.5]];portConstraint=eastwest;" parent="6lLHNWrCiKYkvcWKfaWd-25" vertex="1">
                    <mxGeometry y="86" width="212" height="30" as="geometry"/>
                </mxCell>
                <mxCell id="6lLHNWrCiKYkvcWKfaWd-29" value="+ ClaimValue: string" style="text;strokeColor=none;fillColor=none;align=left;verticalAlign=top;spacingLeft=4;spacingRight=4;overflow=hidden;rotatable=0;points=[[0,0.5],[1,0.5]];portConstraint=eastwest;" parent="6lLHNWrCiKYkvcWKfaWd-25" vertex="1">
                    <mxGeometry y="116" width="212" height="30" as="geometry"/>
                </mxCell>
                <mxCell id="IoU-YvOxV3tLs6gQhQZC-14" style="edgeStyle=orthogonalEdgeStyle;html=1;exitX=1;exitY=0.5;exitDx=0;exitDy=0;entryX=1;entryY=0.5;entryDx=0;entryDy=0;" parent="6lLHNWrCiKYkvcWKfaWd-0" source="6lLHNWrCiKYkvcWKfaWd-27" target="6lLHNWrCiKYkvcWKfaWd-21" edge="1">
                    <mxGeometry relative="1" as="geometry">
                        <Array as="points">
                            <mxPoint x="1728" y="894"/>
                            <mxPoint x="1728" y="651"/>
                        </Array>
                    </mxGeometry>
                </mxCell>
                <mxCell id="IoU-YvOxV3tLs6gQhQZC-17" style="edgeStyle=orthogonalEdgeStyle;html=1;exitX=0;exitY=0.5;exitDx=0;exitDy=0;entryX=1;entryY=0.5;entryDx=0;entryDy=0;" parent="6lLHNWrCiKYkvcWKfaWd-0" source="IoU-YvOxV3tLs6gQhQZC-15" target="6lLHNWrCiKYkvcWKfaWd-2" edge="1">
                    <mxGeometry relative="1" as="geometry"/>
                </mxCell>
                <mxCell id="IoU-YvOxV3tLs6gQhQZC-18" style="edgeStyle=orthogonalEdgeStyle;html=1;exitX=0;exitY=0.5;exitDx=0;exitDy=0;entryX=1;entryY=0.5;entryDx=0;entryDy=0;" parent="6lLHNWrCiKYkvcWKfaWd-0" source="IoU-YvOxV3tLs6gQhQZC-16" target="6lLHNWrCiKYkvcWKfaWd-2" edge="1">
                    <mxGeometry relative="1" as="geometry"/>
                </mxCell>
                <mxCell id="IoU-YvOxV3tLs6gQhQZC-20" style="edgeStyle=orthogonalEdgeStyle;html=1;exitX=1;exitY=0.5;exitDx=0;exitDy=0;entryX=1;entryY=0.5;entryDx=0;entryDy=0;" parent="6lLHNWrCiKYkvcWKfaWd-0" source="IoU-YvOxV3tLs6gQhQZC-19" target="6lLHNWrCiKYkvcWKfaWd-2" edge="1">
                    <mxGeometry relative="1" as="geometry">
                        <Array as="points">
                            <mxPoint x="1038" y="1518"/>
                            <mxPoint x="1038" y="661"/>
                        </Array>
                    </mxGeometry>
                </mxCell>
                <mxCell id="IoU-YvOxV3tLs6gQhQZC-21" value="* is a part of ASP.NET Core Identity" style="text;html=1;align=center;verticalAlign=middle;resizable=0;points=[];autosize=1;strokeColor=none;fillColor=none;" parent="6lLHNWrCiKYkvcWKfaWd-0" vertex="1">
                    <mxGeometry x="1614" y="33" width="198" height="18" as="geometry"/>
                </mxCell>
            </root>
        </mxGraphModel>
    </diagram>
    <diagram id="RJpzAqvB0PISDjHEcrrV" name="(DEPRECATED)">
        <mxGraphModel dx="4702" dy="-3050" grid="0" gridSize="10" guides="0" tooltips="0" connect="1" arrows="1" fold="1" page="0" pageScale="1" pageWidth="827" pageHeight="1169" math="0" shadow="0">
            <root>
                <mxCell id="sOEx2uQghRQpF68jNQK9-0"/>
                <mxCell id="sOEx2uQghRQpF68jNQK9-1" parent="sOEx2uQghRQpF68jNQK9-0"/>
                <mxCell id="fwIXjtmOYbsDKE2BMgAw-0" value="Database" style="swimlane;labelBackgroundColor=none;fontSize=11;startSize=23;" parent="sOEx2uQghRQpF68jNQK9-1" vertex="1">
                    <mxGeometry x="-2836" y="4260" width="1530" height="930" as="geometry">
                        <mxRectangle x="-130" y="230" width="90" height="30" as="alternateBounds"/>
                    </mxGeometry>
                </mxCell>
                <mxCell id="fwIXjtmOYbsDKE2BMgAw-1" value="BaseEntity" style="swimlane;fontStyle=0;childLayout=stackLayout;horizontal=1;startSize=26;fillColor=none;horizontalStack=0;resizeParent=1;resizeParentMax=0;resizeLast=0;collapsible=1;marginBottom=0;" parent="fwIXjtmOYbsDKE2BMgAw-0" vertex="1">
                    <mxGeometry x="40" y="50" width="170" height="146" as="geometry"/>
                </mxCell>
                <mxCell id="fwIXjtmOYbsDKE2BMgAw-2" value="+ Id: Guid" style="text;strokeColor=none;fillColor=none;align=left;verticalAlign=top;spacingLeft=4;spacingRight=4;overflow=hidden;rotatable=0;points=[[0,0.5],[1,0.5]];portConstraint=eastwest;" parent="fwIXjtmOYbsDKE2BMgAw-1" vertex="1">
                    <mxGeometry y="26" width="170" height="30" as="geometry"/>
                </mxCell>
                <mxCell id="fwIXjtmOYbsDKE2BMgAw-3" value="+ Created: DateTimeOffset" style="text;strokeColor=none;fillColor=none;align=left;verticalAlign=top;spacingLeft=4;spacingRight=4;overflow=hidden;rotatable=0;points=[[0,0.5],[1,0.5]];portConstraint=eastwest;" parent="fwIXjtmOYbsDKE2BMgAw-1" vertex="1">
                    <mxGeometry y="56" width="170" height="30" as="geometry"/>
                </mxCell>
                <mxCell id="fwIXjtmOYbsDKE2BMgAw-4" value="+ Changed: DateTimeOffset" style="text;strokeColor=none;fillColor=none;align=left;verticalAlign=top;spacingLeft=4;spacingRight=4;overflow=hidden;rotatable=0;points=[[0,0.5],[1,0.5]];portConstraint=eastwest;" parent="fwIXjtmOYbsDKE2BMgAw-1" vertex="1">
                    <mxGeometry y="86" width="170" height="30" as="geometry"/>
                </mxCell>
                <mxCell id="fwIXjtmOYbsDKE2BMgAw-5" value="+ Deleted: bool" style="text;strokeColor=none;fillColor=none;align=left;verticalAlign=top;spacingLeft=4;spacingRight=4;overflow=hidden;rotatable=0;points=[[0,0.5],[1,0.5]];portConstraint=eastwest;" parent="fwIXjtmOYbsDKE2BMgAw-1" vertex="1">
                    <mxGeometry y="116" width="170" height="30" as="geometry"/>
                </mxCell>
                <mxCell id="fwIXjtmOYbsDKE2BMgAw-6" value="RefreshToken" style="swimlane;fontStyle=0;childLayout=stackLayout;horizontal=1;startSize=26;fillColor=none;horizontalStack=0;resizeParent=1;resizeParentMax=0;resizeLast=0;collapsible=1;marginBottom=0;" parent="fwIXjtmOYbsDKE2BMgAw-0" vertex="1">
                    <mxGeometry x="339.25" y="617.67" width="170" height="104" as="geometry"/>
                </mxCell>
                <mxCell id="fwIXjtmOYbsDKE2BMgAw-7" value="+ LoginId: Guid" style="text;strokeColor=none;fillColor=none;align=left;verticalAlign=top;spacingLeft=4;spacingRight=4;overflow=hidden;rotatable=0;points=[[0,0.5],[1,0.5]];portConstraint=eastwest;" parent="fwIXjtmOYbsDKE2BMgAw-6" vertex="1">
                    <mxGeometry y="26" width="170" height="26" as="geometry"/>
                </mxCell>
                <mxCell id="fwIXjtmOYbsDKE2BMgAw-8" value="+ Expiration: DateTimeOffset" style="text;strokeColor=none;fillColor=none;align=left;verticalAlign=top;spacingLeft=4;spacingRight=4;overflow=hidden;rotatable=0;points=[[0,0.5],[1,0.5]];portConstraint=eastwest;" parent="fwIXjtmOYbsDKE2BMgAw-6" vertex="1">
                    <mxGeometry y="52" width="170" height="26" as="geometry"/>
                </mxCell>
                <mxCell id="fwIXjtmOYbsDKE2BMgAw-9" value="+ Token: string" style="text;strokeColor=none;fillColor=none;align=left;verticalAlign=top;spacingLeft=4;spacingRight=4;overflow=hidden;rotatable=0;points=[[0,0.5],[1,0.5]];portConstraint=eastwest;" parent="fwIXjtmOYbsDKE2BMgAw-6" vertex="1">
                    <mxGeometry y="78" width="170" height="26" as="geometry"/>
                </mxCell>
                <mxCell id="fwIXjtmOYbsDKE2BMgAw-10" style="rounded=0;jumpSize=8;orthogonalLoop=1;jettySize=auto;html=1;exitX=0;exitY=0.5;exitDx=0;exitDy=0;fontSize=11;startArrow=none;startFill=0;endArrow=diamondThin;endFill=1;startSize=8;endSize=8;strokeWidth=1;entryX=0.993;entryY=0.513;entryDx=0;entryDy=0;entryPerimeter=0;" parent="fwIXjtmOYbsDKE2BMgAw-0" source="fwIXjtmOYbsDKE2BMgAw-18" target="fwIXjtmOYbsDKE2BMgAw-22" edge="1">
                    <mxGeometry relative="1" as="geometry">
                        <mxPoint x="850.25" y="465" as="targetPoint"/>
                    </mxGeometry>
                </mxCell>
                <mxCell id="fwIXjtmOYbsDKE2BMgAw-11" value="0..*" style="edgeLabel;html=1;align=center;verticalAlign=middle;resizable=0;points=[];fontSize=11;labelBackgroundColor=none;" parent="fwIXjtmOYbsDKE2BMgAw-10" vertex="1" connectable="0">
                    <mxGeometry x="-0.9876" relative="1" as="geometry">
                        <mxPoint x="-10" y="9" as="offset"/>
                    </mxGeometry>
                </mxCell>
                <mxCell id="fwIXjtmOYbsDKE2BMgAw-12" value="1" style="edgeLabel;html=1;align=center;verticalAlign=middle;resizable=0;points=[];labelBackgroundColor=none;" parent="fwIXjtmOYbsDKE2BMgAw-10" vertex="1" connectable="0">
                    <mxGeometry x="0.963" relative="1" as="geometry">
                        <mxPoint x="1" y="-9" as="offset"/>
                    </mxGeometry>
                </mxCell>
                <mxCell id="fwIXjtmOYbsDKE2BMgAw-13" style="rounded=0;jumpSize=8;orthogonalLoop=1;jettySize=auto;html=1;exitX=0.5;exitY=0;exitDx=0;exitDy=0;entryX=0.54;entryY=1.026;entryDx=0;entryDy=0;fontSize=11;startArrow=diamondThin;startFill=1;endArrow=none;endFill=0;startSize=8;endSize=8;strokeWidth=1;entryPerimeter=0;" parent="fwIXjtmOYbsDKE2BMgAw-0" source="fwIXjtmOYbsDKE2BMgAw-16" target="fwIXjtmOYbsDKE2BMgAw-71" edge="1">
                    <mxGeometry relative="1" as="geometry"/>
                </mxCell>
                <mxCell id="fwIXjtmOYbsDKE2BMgAw-14" value="1..*" style="edgeLabel;html=1;align=center;verticalAlign=middle;resizable=0;points=[];fontSize=11;labelBackgroundColor=none;" parent="fwIXjtmOYbsDKE2BMgAw-13" vertex="1" connectable="0">
                    <mxGeometry x="-0.9352" relative="1" as="geometry">
                        <mxPoint x="12" y="-5" as="offset"/>
                    </mxGeometry>
                </mxCell>
                <mxCell id="fwIXjtmOYbsDKE2BMgAw-15" value="0..*" style="edgeLabel;html=1;align=center;verticalAlign=middle;resizable=0;points=[];fontSize=11;labelBackgroundColor=none;" parent="fwIXjtmOYbsDKE2BMgAw-13" vertex="1" connectable="0">
                    <mxGeometry x="0.9883" y="1" relative="1" as="geometry">
                        <mxPoint x="12" y="7" as="offset"/>
                    </mxGeometry>
                </mxCell>
                <mxCell id="fwIXjtmOYbsDKE2BMgAw-16" value="Document" style="swimlane;fontStyle=0;childLayout=stackLayout;horizontal=1;startSize=26;fillColor=none;horizontalStack=0;resizeParent=1;resizeParentMax=0;resizeLast=0;collapsible=1;marginBottom=0;" parent="fwIXjtmOYbsDKE2BMgAw-0" vertex="1">
                    <mxGeometry x="1099.75" y="506" width="140" height="116" as="geometry"/>
                </mxCell>
                <mxCell id="fwIXjtmOYbsDKE2BMgAw-17" value="+ AccountId: Guid" style="text;strokeColor=none;fillColor=none;align=left;verticalAlign=top;spacingLeft=4;spacingRight=4;overflow=hidden;rotatable=0;points=[[0,0.5],[1,0.5]];portConstraint=eastwest;" parent="fwIXjtmOYbsDKE2BMgAw-16" vertex="1">
                    <mxGeometry y="26" width="140" height="30" as="geometry"/>
                </mxCell>
                <mxCell id="fwIXjtmOYbsDKE2BMgAw-18" value="+ Contents: byte[]" style="text;strokeColor=none;fillColor=none;align=left;verticalAlign=top;spacingLeft=4;spacingRight=4;overflow=hidden;rotatable=0;points=[[0,0.5],[1,0.5]];portConstraint=eastwest;" parent="fwIXjtmOYbsDKE2BMgAw-16" vertex="1">
                    <mxGeometry y="56" width="140" height="30" as="geometry"/>
                </mxCell>
                <mxCell id="fwIXjtmOYbsDKE2BMgAw-144" value="+ Json: JsonObject" style="text;strokeColor=none;fillColor=none;align=left;verticalAlign=top;spacingLeft=4;spacingRight=4;overflow=hidden;rotatable=0;points=[[0,0.5],[1,0.5]];portConstraint=eastwest;" parent="fwIXjtmOYbsDKE2BMgAw-16" vertex="1">
                    <mxGeometry y="86" width="140" height="30" as="geometry"/>
                </mxCell>
                <mxCell id="fwIXjtmOYbsDKE2BMgAw-20" value="Account" style="swimlane;fontStyle=0;childLayout=stackLayout;horizontal=1;startSize=26;fillColor=none;horizontalStack=0;resizeParent=1;resizeParentMax=0;resizeLast=0;collapsible=1;marginBottom=0;labelBackgroundColor=none;fontSize=11;" parent="fwIXjtmOYbsDKE2BMgAw-0" vertex="1">
                    <mxGeometry x="703.25" y="389.66999999999996" width="140" height="104" as="geometry">
                        <mxRectangle x="290" y="480" width="80" height="30" as="alternateBounds"/>
                    </mxGeometry>
                </mxCell>
                <mxCell id="fwIXjtmOYbsDKE2BMgAw-21" value="+ AccountType: enum" style="text;strokeColor=none;fillColor=none;align=left;verticalAlign=top;spacingLeft=4;spacingRight=4;overflow=hidden;rotatable=0;points=[[0,0.5],[1,0.5]];portConstraint=eastwest;labelBackgroundColor=none;fontSize=11;" parent="fwIXjtmOYbsDKE2BMgAw-20" vertex="1">
                    <mxGeometry y="26" width="140" height="26" as="geometry"/>
                </mxCell>
                <mxCell id="fwIXjtmOYbsDKE2BMgAw-22" value="+ Enabled: bool" style="text;strokeColor=none;fillColor=none;align=left;verticalAlign=top;spacingLeft=4;spacingRight=4;overflow=hidden;rotatable=0;points=[[0,0.5],[1,0.5]];portConstraint=eastwest;labelBackgroundColor=none;fontSize=11;" parent="fwIXjtmOYbsDKE2BMgAw-20" vertex="1">
                    <mxGeometry y="52" width="140" height="26" as="geometry"/>
                </mxCell>
                <mxCell id="fwIXjtmOYbsDKE2BMgAw-23" value="+ Verified: bool" style="text;strokeColor=none;fillColor=none;align=left;verticalAlign=top;spacingLeft=4;spacingRight=4;overflow=hidden;rotatable=0;points=[[0,0.5],[1,0.5]];portConstraint=eastwest;labelBackgroundColor=none;fontSize=11;" parent="fwIXjtmOYbsDKE2BMgAw-20" vertex="1">
                    <mxGeometry y="78" width="140" height="26" as="geometry"/>
                </mxCell>
                <mxCell id="fwIXjtmOYbsDKE2BMgAw-24" value="Login" style="swimlane;fontStyle=0;childLayout=stackLayout;horizontal=1;startSize=26;fillColor=none;horizontalStack=0;resizeParent=1;resizeParentMax=0;resizeLast=0;collapsible=1;marginBottom=0;labelBackgroundColor=none;fontSize=11;" parent="fwIXjtmOYbsDKE2BMgAw-0" vertex="1">
                    <mxGeometry x="622.25" y="617.67" width="150" height="104" as="geometry">
                        <mxRectangle x="80" y="480" width="70" height="30" as="alternateBounds"/>
                    </mxGeometry>
                </mxCell>
                <mxCell id="fwIXjtmOYbsDKE2BMgAw-25" value="+ AccountId: Guid" style="text;strokeColor=none;fillColor=none;align=left;verticalAlign=top;spacingLeft=4;spacingRight=4;overflow=hidden;rotatable=0;points=[[0,0.5],[1,0.5]];portConstraint=eastwest;labelBackgroundColor=none;fontSize=11;" parent="fwIXjtmOYbsDKE2BMgAw-24" vertex="1">
                    <mxGeometry y="26" width="150" height="26" as="geometry"/>
                </mxCell>
                <mxCell id="fwIXjtmOYbsDKE2BMgAw-26" value="+ Username: string" style="text;strokeColor=none;fillColor=none;align=left;verticalAlign=top;spacingLeft=4;spacingRight=4;overflow=hidden;rotatable=0;points=[[0,0.5],[1,0.5]];portConstraint=eastwest;labelBackgroundColor=none;fontSize=11;" parent="fwIXjtmOYbsDKE2BMgAw-24" vertex="1">
                    <mxGeometry y="52" width="150" height="26" as="geometry"/>
                </mxCell>
                <mxCell id="fwIXjtmOYbsDKE2BMgAw-27" value="+ Password: string" style="text;strokeColor=none;fillColor=none;align=left;verticalAlign=top;spacingLeft=4;spacingRight=4;overflow=hidden;rotatable=0;points=[[0,0.5],[1,0.5]];portConstraint=eastwest;labelBackgroundColor=none;fontSize=11;" parent="fwIXjtmOYbsDKE2BMgAw-24" vertex="1">
                    <mxGeometry y="78" width="150" height="26" as="geometry"/>
                </mxCell>
                <mxCell id="fwIXjtmOYbsDKE2BMgAw-28" style="rounded=0;jumpSize=8;orthogonalLoop=1;jettySize=auto;html=1;fontSize=11;startArrow=none;startFill=0;endArrow=diamondThin;endFill=1;startSize=8;endSize=8;strokeWidth=1;exitX=0.5;exitY=0;exitDx=0;exitDy=0;entryX=0.25;entryY=1;entryDx=0;entryDy=0;" parent="fwIXjtmOYbsDKE2BMgAw-0" source="fwIXjtmOYbsDKE2BMgAw-24" target="fwIXjtmOYbsDKE2BMgAw-20" edge="1">
                    <mxGeometry relative="1" as="geometry">
                        <mxPoint x="641.25" y="429.66999999999996" as="sourcePoint"/>
                        <mxPoint x="715.25" y="526" as="targetPoint"/>
                    </mxGeometry>
                </mxCell>
                <mxCell id="fwIXjtmOYbsDKE2BMgAw-29" value="1" style="edgeLabel;html=1;align=center;verticalAlign=middle;resizable=0;points=[];fontSize=11;labelBackgroundColor=none;" parent="fwIXjtmOYbsDKE2BMgAw-28" vertex="1" connectable="0">
                    <mxGeometry x="-0.8359" y="1" relative="1" as="geometry">
                        <mxPoint x="-7" y="4" as="offset"/>
                    </mxGeometry>
                </mxCell>
                <mxCell id="fwIXjtmOYbsDKE2BMgAw-30" value="1" style="edgeLabel;html=1;align=center;verticalAlign=middle;resizable=0;points=[];fontSize=11;labelBackgroundColor=none;" parent="fwIXjtmOYbsDKE2BMgAw-28" vertex="1" connectable="0">
                    <mxGeometry x="0.7366" relative="1" as="geometry">
                        <mxPoint x="-4" y="-9" as="offset"/>
                    </mxGeometry>
                </mxCell>
                <mxCell id="fwIXjtmOYbsDKE2BMgAw-31" style="edgeStyle=orthogonalEdgeStyle;rounded=0;jumpSize=8;orthogonalLoop=1;jettySize=auto;html=1;exitX=0.5;exitY=0;exitDx=0;exitDy=0;fontSize=11;startArrow=none;startFill=0;endArrow=diamondThin;endFill=1;startSize=8;endSize=8;strokeWidth=1;entryX=0.5;entryY=1;entryDx=0;entryDy=0;" parent="fwIXjtmOYbsDKE2BMgAw-0" source="fwIXjtmOYbsDKE2BMgAw-34" target="fwIXjtmOYbsDKE2BMgAw-24" edge="1">
                    <mxGeometry relative="1" as="geometry">
                        <mxPoint x="697.5833333333335" y="727.6700000000001" as="targetPoint"/>
                    </mxGeometry>
                </mxCell>
                <mxCell id="fwIXjtmOYbsDKE2BMgAw-32" value="1" style="edgeLabel;html=1;align=center;verticalAlign=middle;resizable=0;points=[];fontSize=11;labelBackgroundColor=none;" parent="fwIXjtmOYbsDKE2BMgAw-31" vertex="1" connectable="0">
                    <mxGeometry x="0.7923" y="2" relative="1" as="geometry">
                        <mxPoint x="-6" y="3" as="offset"/>
                    </mxGeometry>
                </mxCell>
                <mxCell id="fwIXjtmOYbsDKE2BMgAw-33" value="0..*" style="edgeLabel;html=1;align=center;verticalAlign=middle;resizable=0;points=[];fontSize=11;labelBackgroundColor=none;" parent="fwIXjtmOYbsDKE2BMgAw-31" vertex="1" connectable="0">
                    <mxGeometry x="-0.9339" relative="1" as="geometry">
                        <mxPoint x="-12" y="-5" as="offset"/>
                    </mxGeometry>
                </mxCell>
                <mxCell id="fwIXjtmOYbsDKE2BMgAw-34" value="LoginDetail" style="swimlane;fontStyle=0;childLayout=stackLayout;horizontal=1;startSize=26;fillColor=none;horizontalStack=0;resizeParent=1;resizeParentMax=0;resizeLast=0;collapsible=1;marginBottom=0;labelBackgroundColor=none;fontSize=11;" parent="fwIXjtmOYbsDKE2BMgAw-0" vertex="1">
                    <mxGeometry x="622.25" y="773.6700000000001" width="150" height="130" as="geometry"/>
                </mxCell>
                <mxCell id="fwIXjtmOYbsDKE2BMgAw-35" value="+ LoginId: Guid" style="text;strokeColor=none;fillColor=none;align=left;verticalAlign=top;spacingLeft=4;spacingRight=4;overflow=hidden;rotatable=0;points=[[0,0.5],[1,0.5]];portConstraint=eastwest;labelBackgroundColor=none;fontSize=11;" parent="fwIXjtmOYbsDKE2BMgAw-34" vertex="1">
                    <mxGeometry y="26" width="150" height="26" as="geometry"/>
                </mxCell>
                <mxCell id="fwIXjtmOYbsDKE2BMgAw-36" value="+ Success: bool" style="text;strokeColor=none;fillColor=none;align=left;verticalAlign=top;spacingLeft=4;spacingRight=4;overflow=hidden;rotatable=0;points=[[0,0.5],[1,0.5]];portConstraint=eastwest;labelBackgroundColor=none;fontSize=11;" parent="fwIXjtmOYbsDKE2BMgAw-34" vertex="1">
                    <mxGeometry y="52" width="150" height="26" as="geometry"/>
                </mxCell>
                <mxCell id="fwIXjtmOYbsDKE2BMgAw-37" value="+ DeviceType: enum" style="text;strokeColor=none;fillColor=none;align=left;verticalAlign=top;spacingLeft=4;spacingRight=4;overflow=hidden;rotatable=0;points=[[0,0.5],[1,0.5]];portConstraint=eastwest;labelBackgroundColor=none;fontSize=11;" parent="fwIXjtmOYbsDKE2BMgAw-34" vertex="1">
                    <mxGeometry y="78" width="150" height="26" as="geometry"/>
                </mxCell>
                <mxCell id="fwIXjtmOYbsDKE2BMgAw-38" value="+ Time: DateTimeOffset" style="text;strokeColor=none;fillColor=none;align=left;verticalAlign=top;spacingLeft=4;spacingRight=4;overflow=hidden;rotatable=0;points=[[0,0.5],[1,0.5]];portConstraint=eastwest;labelBackgroundColor=none;fontSize=11;" parent="fwIXjtmOYbsDKE2BMgAw-34" vertex="1">
                    <mxGeometry y="104" width="150" height="26" as="geometry"/>
                </mxCell>
                <mxCell id="fwIXjtmOYbsDKE2BMgAw-39" style="rounded=0;jumpSize=8;orthogonalLoop=1;jettySize=auto;html=1;fontSize=11;startArrow=none;startFill=0;endArrow=diamondThin;endFill=1;startSize=8;endSize=8;strokeWidth=1;exitX=0.25;exitY=1;exitDx=0;exitDy=0;" parent="fwIXjtmOYbsDKE2BMgAw-0" source="fwIXjtmOYbsDKE2BMgAw-79" edge="1">
                    <mxGeometry relative="1" as="geometry">
                        <mxPoint x="860" y="290" as="sourcePoint"/>
                        <mxPoint x="836" y="390" as="targetPoint"/>
                    </mxGeometry>
                </mxCell>
                <mxCell id="fwIXjtmOYbsDKE2BMgAw-40" value="0..1" style="edgeLabel;html=1;align=center;verticalAlign=middle;resizable=0;points=[];fontSize=11;labelBackgroundColor=none;" parent="fwIXjtmOYbsDKE2BMgAw-39" vertex="1" connectable="0">
                    <mxGeometry x="-1" y="-1" relative="1" as="geometry">
                        <mxPoint x="11" y="8" as="offset"/>
                    </mxGeometry>
                </mxCell>
                <mxCell id="fwIXjtmOYbsDKE2BMgAw-41" value="1" style="edgeLabel;html=1;align=center;verticalAlign=middle;resizable=0;points=[];labelBackgroundColor=none;" parent="fwIXjtmOYbsDKE2BMgAw-39" vertex="1" connectable="0">
                    <mxGeometry x="0.951" relative="1" as="geometry">
                        <mxPoint x="-4" y="-12" as="offset"/>
                    </mxGeometry>
                </mxCell>
                <mxCell id="fwIXjtmOYbsDKE2BMgAw-42" style="rounded=0;jumpSize=8;orthogonalLoop=1;jettySize=auto;html=1;exitX=0;exitY=0.5;exitDx=0;exitDy=0;fontSize=11;startArrow=none;startFill=0;endArrow=diamondThin;endFill=1;startSize=8;endSize=8;strokeWidth=1;" parent="fwIXjtmOYbsDKE2BMgAw-0" source="fwIXjtmOYbsDKE2BMgAw-52" edge="1">
                    <mxGeometry relative="1" as="geometry">
                        <mxPoint x="843" y="396" as="targetPoint"/>
                    </mxGeometry>
                </mxCell>
                <mxCell id="fwIXjtmOYbsDKE2BMgAw-43" value="0..1" style="edgeLabel;html=1;align=center;verticalAlign=middle;resizable=0;points=[];fontSize=11;labelBackgroundColor=none;" parent="fwIXjtmOYbsDKE2BMgAw-42" vertex="1" connectable="0">
                    <mxGeometry x="-0.9753" relative="1" as="geometry">
                        <mxPoint x="-12" y="-8" as="offset"/>
                    </mxGeometry>
                </mxCell>
                <mxCell id="fwIXjtmOYbsDKE2BMgAw-44" value="1" style="edgeLabel;html=1;align=center;verticalAlign=middle;resizable=0;points=[];labelBackgroundColor=none;" parent="fwIXjtmOYbsDKE2BMgAw-42" vertex="1" connectable="0">
                    <mxGeometry x="0.9253" relative="1" as="geometry">
                        <mxPoint y="-9" as="offset"/>
                    </mxGeometry>
                </mxCell>
                <mxCell id="fwIXjtmOYbsDKE2BMgAw-45" value="Address" style="swimlane;fontStyle=0;childLayout=stackLayout;horizontal=1;startSize=26;fillColor=none;horizontalStack=0;resizeParent=1;resizeParentMax=0;resizeLast=0;collapsible=1;marginBottom=0;" parent="fwIXjtmOYbsDKE2BMgAw-0" vertex="1">
                    <mxGeometry x="1032.75" y="98" width="200" height="236" as="geometry"/>
                </mxCell>
                <mxCell id="fwIXjtmOYbsDKE2BMgAw-46" value="+Â AccountId: Guid" style="text;strokeColor=none;fillColor=none;align=left;verticalAlign=top;spacingLeft=4;spacingRight=4;overflow=hidden;rotatable=0;points=[[0,0.5],[1,0.5]];portConstraint=eastwest;" parent="fwIXjtmOYbsDKE2BMgAw-45" vertex="1">
                    <mxGeometry y="26" width="200" height="30" as="geometry"/>
                </mxCell>
                <mxCell id="fwIXjtmOYbsDKE2BMgAw-47" value="+ Street: string" style="text;strokeColor=none;fillColor=none;align=left;verticalAlign=top;spacingLeft=4;spacingRight=4;overflow=hidden;rotatable=0;points=[[0,0.5],[1,0.5]];portConstraint=eastwest;" parent="fwIXjtmOYbsDKE2BMgAw-45" vertex="1">
                    <mxGeometry y="56" width="200" height="30" as="geometry"/>
                </mxCell>
                <mxCell id="fwIXjtmOYbsDKE2BMgAw-48" value="+ AdditionalStreet: string" style="text;strokeColor=none;fillColor=none;align=left;verticalAlign=top;spacingLeft=4;spacingRight=4;overflow=hidden;rotatable=0;points=[[0,0.5],[1,0.5]];portConstraint=eastwest;" parent="fwIXjtmOYbsDKE2BMgAw-45" vertex="1">
                    <mxGeometry y="86" width="200" height="30" as="geometry"/>
                </mxCell>
                <mxCell id="fwIXjtmOYbsDKE2BMgAw-49" value="+ PostalCode: string" style="text;strokeColor=none;fillColor=none;align=left;verticalAlign=top;spacingLeft=4;spacingRight=4;overflow=hidden;rotatable=0;points=[[0,0.5],[1,0.5]];portConstraint=eastwest;" parent="fwIXjtmOYbsDKE2BMgAw-45" vertex="1">
                    <mxGeometry y="116" width="200" height="30" as="geometry"/>
                </mxCell>
                <mxCell id="fwIXjtmOYbsDKE2BMgAw-50" value="+ City: string" style="text;strokeColor=none;fillColor=none;align=left;verticalAlign=top;spacingLeft=4;spacingRight=4;overflow=hidden;rotatable=0;points=[[0,0.5],[1,0.5]];portConstraint=eastwest;" parent="fwIXjtmOYbsDKE2BMgAw-45" vertex="1">
                    <mxGeometry y="146" width="200" height="30" as="geometry"/>
                </mxCell>
                <mxCell id="fwIXjtmOYbsDKE2BMgAw-51" value="+ Region: string" style="text;strokeColor=none;fillColor=none;align=left;verticalAlign=top;spacingLeft=4;spacingRight=4;overflow=hidden;rotatable=0;points=[[0,0.5],[1,0.5]];portConstraint=eastwest;" parent="fwIXjtmOYbsDKE2BMgAw-45" vertex="1">
                    <mxGeometry y="176" width="200" height="30" as="geometry"/>
                </mxCell>
                <mxCell id="fwIXjtmOYbsDKE2BMgAw-52" value="+ Country: string" style="text;strokeColor=none;fillColor=none;align=left;verticalAlign=top;spacingLeft=4;spacingRight=4;overflow=hidden;rotatable=0;points=[[0,0.5],[1,0.5]];portConstraint=eastwest;" parent="fwIXjtmOYbsDKE2BMgAw-45" vertex="1">
                    <mxGeometry y="206" width="200" height="30" as="geometry"/>
                </mxCell>
                <mxCell id="fwIXjtmOYbsDKE2BMgAw-53" style="rounded=0;jumpSize=8;orthogonalLoop=1;jettySize=auto;html=1;exitX=0.5;exitY=1;exitDx=0;exitDy=0;fontSize=11;startArrow=none;startFill=0;endArrow=diamondThin;endFill=1;startSize=8;endSize=8;strokeWidth=1;entryX=0.5;entryY=0;entryDx=0;entryDy=0;" parent="fwIXjtmOYbsDKE2BMgAw-0" source="fwIXjtmOYbsDKE2BMgAw-56" target="fwIXjtmOYbsDKE2BMgAw-20" edge="1">
                    <mxGeometry relative="1" as="geometry">
                        <mxPoint x="788.25" y="389" as="targetPoint"/>
                    </mxGeometry>
                </mxCell>
                <mxCell id="fwIXjtmOYbsDKE2BMgAw-54" value="0..*" style="edgeLabel;html=1;align=center;verticalAlign=middle;resizable=0;points=[];fontSize=11;labelBackgroundColor=none;" parent="fwIXjtmOYbsDKE2BMgAw-53" vertex="1" connectable="0">
                    <mxGeometry x="-1" relative="1" as="geometry">
                        <mxPoint x="-11" y="7" as="offset"/>
                    </mxGeometry>
                </mxCell>
                <mxCell id="fwIXjtmOYbsDKE2BMgAw-55" value="1" style="edgeLabel;html=1;align=center;verticalAlign=middle;resizable=0;points=[];" parent="fwIXjtmOYbsDKE2BMgAw-53" vertex="1" connectable="0">
                    <mxGeometry x="0.9503" y="-1" relative="1" as="geometry">
                        <mxPoint x="-5" y="-4" as="offset"/>
                    </mxGeometry>
                </mxCell>
                <mxCell id="fwIXjtmOYbsDKE2BMgAw-56" value="SocialSecurityNumber" style="swimlane;fontStyle=0;childLayout=stackLayout;horizontal=1;startSize=26;fillColor=none;horizontalStack=0;resizeParent=1;resizeParentMax=0;resizeLast=0;collapsible=1;marginBottom=0;labelBackgroundColor=none;fontSize=11;" parent="fwIXjtmOYbsDKE2BMgAw-0" vertex="1">
                    <mxGeometry x="672.75" y="82" width="140" height="104" as="geometry">
                        <mxRectangle x="290" y="480" width="80" height="30" as="alternateBounds"/>
                    </mxGeometry>
                </mxCell>
                <mxCell id="fwIXjtmOYbsDKE2BMgAw-57" value="+ AccountId: Guid" style="text;strokeColor=none;fillColor=none;align=left;verticalAlign=top;spacingLeft=4;spacingRight=4;overflow=hidden;rotatable=0;points=[[0,0.5],[1,0.5]];portConstraint=eastwest;labelBackgroundColor=none;fontSize=11;" parent="fwIXjtmOYbsDKE2BMgAw-56" vertex="1">
                    <mxGeometry y="26" width="140" height="26" as="geometry"/>
                </mxCell>
                <mxCell id="fwIXjtmOYbsDKE2BMgAw-58" value="+ SsnType: enum" style="text;strokeColor=none;fillColor=none;align=left;verticalAlign=top;spacingLeft=4;spacingRight=4;overflow=hidden;rotatable=0;points=[[0,0.5],[1,0.5]];portConstraint=eastwest;labelBackgroundColor=none;fontSize=11;" parent="fwIXjtmOYbsDKE2BMgAw-56" vertex="1">
                    <mxGeometry y="52" width="140" height="26" as="geometry"/>
                </mxCell>
                <mxCell id="fwIXjtmOYbsDKE2BMgAw-59" value="+ Number: string" style="text;strokeColor=none;fillColor=none;align=left;verticalAlign=top;spacingLeft=4;spacingRight=4;overflow=hidden;rotatable=0;points=[[0,0.5],[1,0.5]];portConstraint=eastwest;labelBackgroundColor=none;fontSize=11;" parent="fwIXjtmOYbsDKE2BMgAw-56" vertex="1">
                    <mxGeometry y="78" width="140" height="26" as="geometry"/>
                </mxCell>
                <mxCell id="fwIXjtmOYbsDKE2BMgAw-60" style="rounded=0;jumpSize=8;orthogonalLoop=1;jettySize=auto;html=1;exitX=1;exitY=0.5;exitDx=0;exitDy=0;fontSize=11;startArrow=none;startFill=0;endArrow=diamondThin;endFill=1;startSize=8;endSize=8;strokeWidth=1;" parent="fwIXjtmOYbsDKE2BMgAw-0" source="fwIXjtmOYbsDKE2BMgAw-6" edge="1">
                    <mxGeometry relative="1" as="geometry">
                        <mxPoint x="622.25" y="669.550724637681" as="targetPoint"/>
                    </mxGeometry>
                </mxCell>
                <mxCell id="fwIXjtmOYbsDKE2BMgAw-61" value="0..*" style="edgeLabel;html=1;align=center;verticalAlign=middle;resizable=0;points=[];fontSize=11;labelBackgroundColor=none;" parent="fwIXjtmOYbsDKE2BMgAw-60" vertex="1" connectable="0">
                    <mxGeometry x="-0.7713" relative="1" as="geometry">
                        <mxPoint x="-2" y="-10" as="offset"/>
                    </mxGeometry>
                </mxCell>
                <mxCell id="fwIXjtmOYbsDKE2BMgAw-62" value="1" style="edgeLabel;html=1;align=center;verticalAlign=middle;resizable=0;points=[];fontSize=11;labelBackgroundColor=none;" parent="fwIXjtmOYbsDKE2BMgAw-60" vertex="1" connectable="0">
                    <mxGeometry x="0.8569" relative="1" as="geometry">
                        <mxPoint x="1" y="-12" as="offset"/>
                    </mxGeometry>
                </mxCell>
                <mxCell id="fwIXjtmOYbsDKE2BMgAw-63" style="rounded=0;jumpSize=8;orthogonalLoop=1;jettySize=auto;html=1;exitX=0.8;exitY=0.985;exitDx=0;exitDy=0;fontSize=11;startArrow=none;startFill=0;endArrow=diamondThin;endFill=1;startSize=8;endSize=8;strokeWidth=1;exitPerimeter=0;entryX=0.075;entryY=0;entryDx=0;entryDy=0;entryPerimeter=0;" parent="fwIXjtmOYbsDKE2BMgAw-0" source="fwIXjtmOYbsDKE2BMgAw-120" target="fwIXjtmOYbsDKE2BMgAw-20" edge="1">
                    <mxGeometry relative="1" as="geometry">
                        <mxPoint x="763.25" y="389" as="targetPoint"/>
                        <mxPoint x="636.25" y="275" as="sourcePoint"/>
                    </mxGeometry>
                </mxCell>
                <mxCell id="fwIXjtmOYbsDKE2BMgAw-64" value="1" style="edgeLabel;html=1;align=center;verticalAlign=middle;resizable=0;points=[];labelBackgroundColor=none;" parent="fwIXjtmOYbsDKE2BMgAw-63" vertex="1" connectable="0">
                    <mxGeometry x="0.9051" y="1" relative="1" as="geometry">
                        <mxPoint x="5" y="-4" as="offset"/>
                    </mxGeometry>
                </mxCell>
                <mxCell id="fwIXjtmOYbsDKE2BMgAw-65" value="1" style="edgeLabel;html=1;align=center;verticalAlign=middle;resizable=0;points=[];labelBackgroundColor=none;" parent="fwIXjtmOYbsDKE2BMgAw-63" vertex="1" connectable="0">
                    <mxGeometry x="-0.9386" y="1" relative="1" as="geometry">
                        <mxPoint x="-8" y="4" as="offset"/>
                    </mxGeometry>
                </mxCell>
                <mxCell id="fwIXjtmOYbsDKE2BMgAw-66" style="rounded=0;jumpSize=8;orthogonalLoop=1;jettySize=auto;html=1;exitX=0;exitY=0.5;exitDx=0;exitDy=0;fontSize=11;startArrow=none;startFill=0;endArrow=diamondThin;endFill=1;startSize=8;endSize=8;strokeWidth=1;entryX=1;entryY=0.5;entryDx=0;entryDy=0;" parent="fwIXjtmOYbsDKE2BMgAw-0" source="fwIXjtmOYbsDKE2BMgAw-70" target="fwIXjtmOYbsDKE2BMgAw-21" edge="1">
                    <mxGeometry relative="1" as="geometry">
                        <mxPoint x="860.25" y="455" as="targetPoint"/>
                    </mxGeometry>
                </mxCell>
                <mxCell id="fwIXjtmOYbsDKE2BMgAw-67" value="0..*" style="edgeLabel;html=1;align=center;verticalAlign=middle;resizable=0;points=[];fontSize=11;labelBackgroundColor=none;" parent="fwIXjtmOYbsDKE2BMgAw-66" vertex="1" connectable="0">
                    <mxGeometry x="-0.9999" relative="1" as="geometry">
                        <mxPoint x="-11" y="-8" as="offset"/>
                    </mxGeometry>
                </mxCell>
                <mxCell id="fwIXjtmOYbsDKE2BMgAw-68" value="1" style="edgeLabel;html=1;align=center;verticalAlign=middle;resizable=0;points=[];labelBackgroundColor=none;" parent="fwIXjtmOYbsDKE2BMgAw-66" vertex="1" connectable="0">
                    <mxGeometry x="0.9341" y="-1" relative="1" as="geometry">
                        <mxPoint y="-7" as="offset"/>
                    </mxGeometry>
                </mxCell>
                <mxCell id="fwIXjtmOYbsDKE2BMgAw-69" value="Share" style="swimlane;fontStyle=0;childLayout=stackLayout;horizontal=1;startSize=26;fillColor=none;horizontalStack=0;resizeParent=1;resizeParentMax=0;resizeLast=0;collapsible=1;marginBottom=0;labelBackgroundColor=none;fontSize=11;" parent="fwIXjtmOYbsDKE2BMgAw-0" vertex="1">
                    <mxGeometry x="1083.75" y="377.0000000000001" width="160" height="78" as="geometry"/>
                </mxCell>
                <mxCell id="fwIXjtmOYbsDKE2BMgAw-70" value="+ AccountId: Guid" style="text;strokeColor=none;fillColor=none;align=left;verticalAlign=top;spacingLeft=4;spacingRight=4;overflow=hidden;rotatable=0;points=[[0,0.5],[1,0.5]];portConstraint=eastwest;labelBackgroundColor=none;fontSize=11;" parent="fwIXjtmOYbsDKE2BMgAw-69" vertex="1">
                    <mxGeometry y="26" width="160" height="26" as="geometry"/>
                </mxCell>
                <mxCell id="fwIXjtmOYbsDKE2BMgAw-71" value="+ Expiration: DateTimeOffset" style="text;strokeColor=none;fillColor=none;align=left;verticalAlign=top;spacingLeft=4;spacingRight=4;overflow=hidden;rotatable=0;points=[[0,0.5],[1,0.5]];portConstraint=eastwest;labelBackgroundColor=none;fontSize=11;" parent="fwIXjtmOYbsDKE2BMgAw-69" vertex="1">
                    <mxGeometry y="52" width="160" height="26" as="geometry"/>
                </mxCell>
                <mxCell id="fwIXjtmOYbsDKE2BMgAw-72" style="edgeStyle=none;rounded=0;orthogonalLoop=1;jettySize=auto;html=1;startArrow=none;startFill=0;endArrow=diamondThin;endFill=1;entryX=1;entryY=0.5;entryDx=0;entryDy=0;exitX=0;exitY=0.5;exitDx=0;exitDy=0;" parent="fwIXjtmOYbsDKE2BMgAw-0" source="fwIXjtmOYbsDKE2BMgAw-77" target="fwIXjtmOYbsDKE2BMgAw-70" edge="1">
                    <mxGeometry relative="1" as="geometry">
                        <mxPoint x="1241.25" y="10" as="sourcePoint"/>
                        <mxPoint x="1131.25" y="140" as="targetPoint"/>
                    </mxGeometry>
                </mxCell>
                <mxCell id="fwIXjtmOYbsDKE2BMgAw-73" value="1" style="edgeLabel;html=1;align=center;verticalAlign=middle;resizable=0;points=[];labelBackgroundColor=none;" parent="fwIXjtmOYbsDKE2BMgAw-72" vertex="1" connectable="0">
                    <mxGeometry x="0.916" relative="1" as="geometry">
                        <mxPoint x="3" y="-13" as="offset"/>
                    </mxGeometry>
                </mxCell>
                <mxCell id="fwIXjtmOYbsDKE2BMgAw-74" value="0..*" style="edgeLabel;html=1;align=center;verticalAlign=middle;resizable=0;points=[];labelBackgroundColor=none;" parent="fwIXjtmOYbsDKE2BMgAw-72" vertex="1" connectable="0">
                    <mxGeometry x="-0.8999" relative="1" as="geometry">
                        <mxPoint x="-9" y="-9" as="offset"/>
                    </mxGeometry>
                </mxCell>
                <mxCell id="fwIXjtmOYbsDKE2BMgAw-75" value="ShareDetail" style="swimlane;fontStyle=0;childLayout=stackLayout;horizontal=1;startSize=26;fillColor=none;horizontalStack=0;resizeParent=1;resizeParentMax=0;resizeLast=0;collapsible=1;marginBottom=0;labelBackgroundColor=none;fontSize=11;" parent="fwIXjtmOYbsDKE2BMgAw-0" vertex="1">
                    <mxGeometry x="1292.75" y="304" width="160" height="104" as="geometry"/>
                </mxCell>
                <mxCell id="fwIXjtmOYbsDKE2BMgAw-76" value="+ ShareId: Guid" style="text;strokeColor=none;fillColor=none;align=left;verticalAlign=top;spacingLeft=4;spacingRight=4;overflow=hidden;rotatable=0;points=[[0,0.5],[1,0.5]];portConstraint=eastwest;labelBackgroundColor=none;fontSize=11;" parent="fwIXjtmOYbsDKE2BMgAw-75" vertex="1">
                    <mxGeometry y="26" width="160" height="26" as="geometry"/>
                </mxCell>
                <mxCell id="fwIXjtmOYbsDKE2BMgAw-77" value="+ DetailType: enum" style="text;strokeColor=none;fillColor=none;align=left;verticalAlign=top;spacingLeft=4;spacingRight=4;overflow=hidden;rotatable=0;points=[[0,0.5],[1,0.5]];portConstraint=eastwest;labelBackgroundColor=none;fontSize=11;" parent="fwIXjtmOYbsDKE2BMgAw-75" vertex="1">
                    <mxGeometry y="52" width="160" height="26" as="geometry"/>
                </mxCell>
                <mxCell id="fwIXjtmOYbsDKE2BMgAw-78" value="+ Description: string" style="text;strokeColor=none;fillColor=none;align=left;verticalAlign=top;spacingLeft=4;spacingRight=4;overflow=hidden;rotatable=0;points=[[0,0.5],[1,0.5]];portConstraint=eastwest;labelBackgroundColor=none;fontSize=11;" parent="fwIXjtmOYbsDKE2BMgAw-75" vertex="1">
                    <mxGeometry y="78" width="160" height="26" as="geometry"/>
                </mxCell>
                <mxCell id="fwIXjtmOYbsDKE2BMgAw-79" value="User" style="swimlane;fontStyle=0;childLayout=stackLayout;horizontal=1;startSize=26;fillColor=none;horizontalStack=0;resizeParent=1;resizeParentMax=0;resizeLast=0;collapsible=1;marginBottom=0;labelBackgroundColor=none;fontSize=11;" parent="fwIXjtmOYbsDKE2BMgAw-0" vertex="1">
                    <mxGeometry x="838.75" y="70" width="162" height="208" as="geometry">
                        <mxRectangle x="290" y="480" width="80" height="30" as="alternateBounds"/>
                    </mxGeometry>
                </mxCell>
                <mxCell id="fwIXjtmOYbsDKE2BMgAw-80" value="+ AccountId: Guid" style="text;strokeColor=none;fillColor=none;align=left;verticalAlign=top;spacingLeft=4;spacingRight=4;overflow=hidden;rotatable=0;points=[[0,0.5],[1,0.5]];portConstraint=eastwest;labelBackgroundColor=none;fontSize=11;" parent="fwIXjtmOYbsDKE2BMgAw-79" vertex="1">
                    <mxGeometry y="26" width="162" height="26" as="geometry"/>
                </mxCell>
                <mxCell id="fwIXjtmOYbsDKE2BMgAw-81" value="+ Firstname: string" style="text;strokeColor=none;fillColor=none;align=left;verticalAlign=top;spacingLeft=4;spacingRight=4;overflow=hidden;rotatable=0;points=[[0,0.5],[1,0.5]];portConstraint=eastwest;labelBackgroundColor=none;fontSize=11;" parent="fwIXjtmOYbsDKE2BMgAw-79" vertex="1">
                    <mxGeometry y="52" width="162" height="26" as="geometry"/>
                </mxCell>
                <mxCell id="fwIXjtmOYbsDKE2BMgAw-82" value="+ Middlenames: string" style="text;strokeColor=none;fillColor=none;align=left;verticalAlign=top;spacingLeft=4;spacingRight=4;overflow=hidden;rotatable=0;points=[[0,0.5],[1,0.5]];portConstraint=eastwest;labelBackgroundColor=none;fontSize=11;" parent="fwIXjtmOYbsDKE2BMgAw-79" vertex="1">
                    <mxGeometry y="78" width="162" height="26" as="geometry"/>
                </mxCell>
                <mxCell id="fwIXjtmOYbsDKE2BMgAw-83" value="+ Lastname: string" style="text;strokeColor=none;fillColor=none;align=left;verticalAlign=top;spacingLeft=4;spacingRight=4;overflow=hidden;rotatable=0;points=[[0,0.5],[1,0.5]];portConstraint=eastwest;labelBackgroundColor=none;fontSize=11;" parent="fwIXjtmOYbsDKE2BMgAw-79" vertex="1">
                    <mxGeometry y="104" width="162" height="26" as="geometry"/>
                </mxCell>
                <mxCell id="fwIXjtmOYbsDKE2BMgAw-84" value="+ DateOfBirth: DateTimeOffset" style="text;strokeColor=none;fillColor=none;align=left;verticalAlign=top;spacingLeft=4;spacingRight=4;overflow=hidden;rotatable=0;points=[[0,0.5],[1,0.5]];portConstraint=eastwest;labelBackgroundColor=none;fontSize=11;" parent="fwIXjtmOYbsDKE2BMgAw-79" vertex="1">
                    <mxGeometry y="130" width="162" height="26" as="geometry"/>
                </mxCell>
                <mxCell id="fwIXjtmOYbsDKE2BMgAw-85" value="+ Nationality: string" style="text;strokeColor=none;fillColor=none;align=left;verticalAlign=top;spacingLeft=4;spacingRight=4;overflow=hidden;rotatable=0;points=[[0,0.5],[1,0.5]];portConstraint=eastwest;labelBackgroundColor=none;fontSize=11;" parent="fwIXjtmOYbsDKE2BMgAw-79" vertex="1">
                    <mxGeometry y="156" width="162" height="26" as="geometry"/>
                </mxCell>
                <mxCell id="fwIXjtmOYbsDKE2BMgAw-86" value="+ SexType: enum" style="text;strokeColor=none;fillColor=none;align=left;verticalAlign=top;spacingLeft=4;spacingRight=4;overflow=hidden;rotatable=0;points=[[0,0.5],[1,0.5]];portConstraint=eastwest;labelBackgroundColor=none;fontSize=11;" parent="fwIXjtmOYbsDKE2BMgAw-79" vertex="1">
                    <mxGeometry y="182" width="162" height="26" as="geometry"/>
                </mxCell>
                <mxCell id="fwIXjtmOYbsDKE2BMgAw-87" value="DocumentSignature" style="swimlane;fontStyle=0;childLayout=stackLayout;horizontal=1;startSize=26;fillColor=none;horizontalStack=0;resizeParent=1;resizeParentMax=0;resizeLast=0;collapsible=1;marginBottom=0;" parent="fwIXjtmOYbsDKE2BMgAw-0" vertex="1">
                    <mxGeometry x="1302.75" y="455" width="140" height="56" as="geometry"/>
                </mxCell>
                <mxCell id="fwIXjtmOYbsDKE2BMgAw-88" value="+ DocumentId: Guid" style="text;strokeColor=none;fillColor=none;align=left;verticalAlign=top;spacingLeft=4;spacingRight=4;overflow=hidden;rotatable=0;points=[[0,0.5],[1,0.5]];portConstraint=eastwest;" parent="fwIXjtmOYbsDKE2BMgAw-87" vertex="1">
                    <mxGeometry y="26" width="140" height="30" as="geometry"/>
                </mxCell>
                <mxCell id="fwIXjtmOYbsDKE2BMgAw-89" value="DocumentDetail" style="swimlane;fontStyle=0;childLayout=stackLayout;horizontal=1;startSize=26;fillColor=none;horizontalStack=0;resizeParent=1;resizeParentMax=0;resizeLast=0;collapsible=1;marginBottom=0;" parent="fwIXjtmOYbsDKE2BMgAw-0" vertex="1">
                    <mxGeometry x="1302.75" y="574" width="170" height="176" as="geometry"/>
                </mxCell>
                <mxCell id="fwIXjtmOYbsDKE2BMgAw-90" value="+ DocumentId: Guid" style="text;strokeColor=none;fillColor=none;align=left;verticalAlign=top;spacingLeft=4;spacingRight=4;overflow=hidden;rotatable=0;points=[[0,0.5],[1,0.5]];portConstraint=eastwest;" parent="fwIXjtmOYbsDKE2BMgAw-89" vertex="1">
                    <mxGeometry y="26" width="170" height="30" as="geometry"/>
                </mxCell>
                <mxCell id="fwIXjtmOYbsDKE2BMgAw-91" value="+ FileName: string" style="text;strokeColor=none;fillColor=none;align=left;verticalAlign=top;spacingLeft=4;spacingRight=4;overflow=hidden;rotatable=0;points=[[0,0.5],[1,0.5]];portConstraint=eastwest;" parent="fwIXjtmOYbsDKE2BMgAw-89" vertex="1">
                    <mxGeometry y="56" width="170" height="30" as="geometry"/>
                </mxCell>
                <mxCell id="fwIXjtmOYbsDKE2BMgAw-137" value="+ Extention: string" style="text;strokeColor=none;fillColor=none;align=left;verticalAlign=top;spacingLeft=4;spacingRight=4;overflow=hidden;rotatable=0;points=[[0,0.5],[1,0.5]];portConstraint=eastwest;" parent="fwIXjtmOYbsDKE2BMgAw-89" vertex="1">
                    <mxGeometry y="86" width="170" height="30" as="geometry"/>
                </mxCell>
                <mxCell id="fwIXjtmOYbsDKE2BMgAw-138" value="+ ContentType: string" style="text;strokeColor=none;fillColor=none;align=left;verticalAlign=top;spacingLeft=4;spacingRight=4;overflow=hidden;rotatable=0;points=[[0,0.5],[1,0.5]];portConstraint=eastwest;" parent="fwIXjtmOYbsDKE2BMgAw-89" vertex="1">
                    <mxGeometry y="116" width="170" height="30" as="geometry"/>
                </mxCell>
                <mxCell id="fwIXjtmOYbsDKE2BMgAw-92" value="+ Length: long" style="text;strokeColor=none;fillColor=none;align=left;verticalAlign=top;spacingLeft=4;spacingRight=4;overflow=hidden;rotatable=0;points=[[0,0.5],[1,0.5]];portConstraint=eastwest;" parent="fwIXjtmOYbsDKE2BMgAw-89" vertex="1">
                    <mxGeometry y="146" width="170" height="30" as="geometry"/>
                </mxCell>
                <mxCell id="fwIXjtmOYbsDKE2BMgAw-93" style="edgeStyle=none;rounded=0;orthogonalLoop=1;jettySize=auto;html=1;exitX=1;exitY=0.5;exitDx=0;exitDy=0;entryX=0;entryY=0.5;entryDx=0;entryDy=0;endArrow=none;endFill=0;startArrow=diamondThin;startFill=1;" parent="fwIXjtmOYbsDKE2BMgAw-0" source="fwIXjtmOYbsDKE2BMgAw-17" target="fwIXjtmOYbsDKE2BMgAw-88" edge="1">
                    <mxGeometry relative="1" as="geometry">
                        <mxPoint x="1511.86" y="120" as="targetPoint"/>
                    </mxGeometry>
                </mxCell>
                <mxCell id="fwIXjtmOYbsDKE2BMgAw-94" value="1" style="edgeLabel;html=1;align=center;verticalAlign=middle;resizable=0;points=[];labelBackgroundColor=none;" parent="fwIXjtmOYbsDKE2BMgAw-93" vertex="1" connectable="0">
                    <mxGeometry x="-0.9229" relative="1" as="geometry">
                        <mxPoint x="2" y="-11" as="offset"/>
                    </mxGeometry>
                </mxCell>
                <mxCell id="fwIXjtmOYbsDKE2BMgAw-95" value="0..*" style="edgeLabel;html=1;align=center;verticalAlign=middle;resizable=0;points=[];labelBackgroundColor=none;" parent="fwIXjtmOYbsDKE2BMgAw-93" vertex="1" connectable="0">
                    <mxGeometry x="0.7059" relative="1" as="geometry">
                        <mxPoint x="-1" y="-15" as="offset"/>
                    </mxGeometry>
                </mxCell>
                <mxCell id="fwIXjtmOYbsDKE2BMgAw-96" style="edgeStyle=none;rounded=0;orthogonalLoop=1;jettySize=auto;html=1;exitX=1;exitY=0.5;exitDx=0;exitDy=0;entryX=-0.003;entryY=0.045;entryDx=0;entryDy=0;endArrow=none;endFill=0;startArrow=diamondThin;startFill=1;entryPerimeter=0;" parent="fwIXjtmOYbsDKE2BMgAw-0" source="fwIXjtmOYbsDKE2BMgAw-18" target="fwIXjtmOYbsDKE2BMgAw-90" edge="1">
                    <mxGeometry relative="1" as="geometry"/>
                </mxCell>
                <mxCell id="fwIXjtmOYbsDKE2BMgAw-97" value="1" style="edgeLabel;html=1;align=center;verticalAlign=middle;resizable=0;points=[];labelBackgroundColor=none;" parent="fwIXjtmOYbsDKE2BMgAw-96" vertex="1" connectable="0">
                    <mxGeometry x="0.9925" y="1" relative="1" as="geometry">
                        <mxPoint x="-5" y="-8" as="offset"/>
                    </mxGeometry>
                </mxCell>
                <mxCell id="fwIXjtmOYbsDKE2BMgAw-98" value="1" style="edgeLabel;html=1;align=center;verticalAlign=middle;resizable=0;points=[];labelBackgroundColor=none;" parent="fwIXjtmOYbsDKE2BMgAw-96" vertex="1" connectable="0">
                    <mxGeometry x="-0.9768" relative="1" as="geometry">
                        <mxPoint x="3" y="-8" as="offset"/>
                    </mxGeometry>
                </mxCell>
                <mxCell id="fwIXjtmOYbsDKE2BMgAw-99" style="rounded=0;orthogonalLoop=1;jettySize=auto;html=1;exitX=1;exitY=0.5;exitDx=0;exitDy=0;entryX=0;entryY=0.75;entryDx=0;entryDy=0;startArrow=none;startFill=0;endArrow=diamondThin;endFill=1;" parent="fwIXjtmOYbsDKE2BMgAw-0" source="fwIXjtmOYbsDKE2BMgAw-102" target="fwIXjtmOYbsDKE2BMgAw-24" edge="1">
                    <mxGeometry relative="1" as="geometry"/>
                </mxCell>
                <mxCell id="fwIXjtmOYbsDKE2BMgAw-100" value="1" style="edgeLabel;html=1;align=center;verticalAlign=middle;resizable=0;points=[];labelBackgroundColor=none;" parent="fwIXjtmOYbsDKE2BMgAw-99" vertex="1" connectable="0">
                    <mxGeometry x="0.914" relative="1" as="geometry">
                        <mxPoint x="-1" y="-11" as="offset"/>
                    </mxGeometry>
                </mxCell>
                <mxCell id="fwIXjtmOYbsDKE2BMgAw-101" value="0..*" style="edgeLabel;html=1;align=center;verticalAlign=middle;resizable=0;points=[];" parent="fwIXjtmOYbsDKE2BMgAw-99" vertex="1" connectable="0">
                    <mxGeometry x="-0.9675" relative="1" as="geometry">
                        <mxPoint x="8" y="7" as="offset"/>
                    </mxGeometry>
                </mxCell>
                <mxCell id="fwIXjtmOYbsDKE2BMgAw-102" value="DeviceToken" style="swimlane;fontStyle=0;childLayout=stackLayout;horizontal=1;startSize=26;fillColor=none;horizontalStack=0;resizeParent=1;resizeParentMax=0;resizeLast=0;collapsible=1;marginBottom=0;" parent="fwIXjtmOYbsDKE2BMgAw-0" vertex="1">
                    <mxGeometry x="339.25" y="740.0000000000001" width="170" height="104" as="geometry"/>
                </mxCell>
                <mxCell id="fwIXjtmOYbsDKE2BMgAw-103" value="+ LoginId: Guid" style="text;strokeColor=none;fillColor=none;align=left;verticalAlign=top;spacingLeft=4;spacingRight=4;overflow=hidden;rotatable=0;points=[[0,0.5],[1,0.5]];portConstraint=eastwest;" parent="fwIXjtmOYbsDKE2BMgAw-102" vertex="1">
                    <mxGeometry y="26" width="170" height="26" as="geometry"/>
                </mxCell>
                <mxCell id="fwIXjtmOYbsDKE2BMgAw-104" value="+ DeviceType: enum" style="text;strokeColor=none;fillColor=none;align=left;verticalAlign=top;spacingLeft=4;spacingRight=4;overflow=hidden;rotatable=0;points=[[0,0.5],[1,0.5]];portConstraint=eastwest;" parent="fwIXjtmOYbsDKE2BMgAw-102" vertex="1">
                    <mxGeometry y="52" width="170" height="26" as="geometry"/>
                </mxCell>
                <mxCell id="fwIXjtmOYbsDKE2BMgAw-105" value="+ Token: string" style="text;strokeColor=none;fillColor=none;align=left;verticalAlign=top;spacingLeft=4;spacingRight=4;overflow=hidden;rotatable=0;points=[[0,0.5],[1,0.5]];portConstraint=eastwest;" parent="fwIXjtmOYbsDKE2BMgAw-102" vertex="1">
                    <mxGeometry y="78" width="170" height="26" as="geometry"/>
                </mxCell>
                <mxCell id="fwIXjtmOYbsDKE2BMgAw-106" value="PhoneNumber" style="swimlane;fontStyle=0;childLayout=stackLayout;horizontal=1;startSize=26;fillColor=none;horizontalStack=0;resizeParent=1;resizeParentMax=0;resizeLast=0;collapsible=1;marginBottom=0;labelBackgroundColor=none;" parent="fwIXjtmOYbsDKE2BMgAw-0" vertex="1">
                    <mxGeometry x="369.25" y="308" width="140" height="104" as="geometry"/>
                </mxCell>
                <mxCell id="fwIXjtmOYbsDKE2BMgAw-107" value="+ AccountId: type" style="text;strokeColor=none;fillColor=none;align=left;verticalAlign=top;spacingLeft=4;spacingRight=4;overflow=hidden;rotatable=0;points=[[0,0.5],[1,0.5]];portConstraint=eastwest;labelBackgroundColor=none;" parent="fwIXjtmOYbsDKE2BMgAw-106" vertex="1">
                    <mxGeometry y="26" width="140" height="26" as="geometry"/>
                </mxCell>
                <mxCell id="fwIXjtmOYbsDKE2BMgAw-108" value="+ Number: string" style="text;strokeColor=none;fillColor=none;align=left;verticalAlign=top;spacingLeft=4;spacingRight=4;overflow=hidden;rotatable=0;points=[[0,0.5],[1,0.5]];portConstraint=eastwest;labelBackgroundColor=none;" parent="fwIXjtmOYbsDKE2BMgAw-106" vertex="1">
                    <mxGeometry y="52" width="140" height="26" as="geometry"/>
                </mxCell>
                <mxCell id="fwIXjtmOYbsDKE2BMgAw-109" value="+ Verified: bool" style="text;strokeColor=none;fillColor=none;align=left;verticalAlign=top;spacingLeft=4;spacingRight=4;overflow=hidden;rotatable=0;points=[[0,0.5],[1,0.5]];portConstraint=eastwest;labelBackgroundColor=none;" parent="fwIXjtmOYbsDKE2BMgAw-106" vertex="1">
                    <mxGeometry y="78" width="140" height="26" as="geometry"/>
                </mxCell>
                <mxCell id="fwIXjtmOYbsDKE2BMgAw-110" style="edgeStyle=orthogonalEdgeStyle;rounded=0;orthogonalLoop=1;jettySize=auto;html=1;exitX=1;exitY=0.5;exitDx=0;exitDy=0;entryX=0;entryY=0.5;entryDx=0;entryDy=0;startArrow=none;startFill=0;endArrow=diamondThin;endFill=1;" parent="fwIXjtmOYbsDKE2BMgAw-0" source="fwIXjtmOYbsDKE2BMgAw-113" target="fwIXjtmOYbsDKE2BMgAw-117" edge="1">
                    <mxGeometry relative="1" as="geometry"/>
                </mxCell>
                <mxCell id="fwIXjtmOYbsDKE2BMgAw-111" value="1" style="edgeLabel;html=1;align=center;verticalAlign=middle;resizable=0;points=[];labelBackgroundColor=none;" parent="fwIXjtmOYbsDKE2BMgAw-110" vertex="1" connectable="0">
                    <mxGeometry x="0.9354" relative="1" as="geometry">
                        <mxPoint x="-1" y="-10" as="offset"/>
                    </mxGeometry>
                </mxCell>
                <mxCell id="fwIXjtmOYbsDKE2BMgAw-112" value="1" style="edgeLabel;html=1;align=center;verticalAlign=middle;resizable=0;points=[];labelBackgroundColor=none;" parent="fwIXjtmOYbsDKE2BMgAw-110" vertex="1" connectable="0">
                    <mxGeometry x="-0.915" y="1" relative="1" as="geometry">
                        <mxPoint y="-7" as="offset"/>
                    </mxGeometry>
                </mxCell>
                <mxCell id="fwIXjtmOYbsDKE2BMgAw-113" value="EmailVerificationCode" style="swimlane;fontStyle=0;childLayout=stackLayout;horizontal=1;startSize=26;fillColor=none;horizontalStack=0;resizeParent=1;resizeParentMax=0;resizeLast=0;collapsible=1;marginBottom=0;labelBackgroundColor=none;" parent="fwIXjtmOYbsDKE2BMgAw-0" vertex="1">
                    <mxGeometry x="280" y="160" width="174" height="104" as="geometry"/>
                </mxCell>
                <mxCell id="fwIXjtmOYbsDKE2BMgAw-114" value="+ EmailId: Guid" style="text;strokeColor=none;fillColor=none;align=left;verticalAlign=top;spacingLeft=4;spacingRight=4;overflow=hidden;rotatable=0;points=[[0,0.5],[1,0.5]];portConstraint=eastwest;labelBackgroundColor=none;" parent="fwIXjtmOYbsDKE2BMgAw-113" vertex="1">
                    <mxGeometry y="26" width="174" height="26" as="geometry"/>
                </mxCell>
                <mxCell id="fwIXjtmOYbsDKE2BMgAw-115" value="+ AccoundId: Guid" style="text;strokeColor=none;fillColor=none;align=left;verticalAlign=top;spacingLeft=4;spacingRight=4;overflow=hidden;rotatable=0;points=[[0,0.5],[1,0.5]];portConstraint=eastwest;labelBackgroundColor=none;" parent="fwIXjtmOYbsDKE2BMgAw-113" vertex="1">
                    <mxGeometry y="52" width="174" height="26" as="geometry"/>
                </mxCell>
                <mxCell id="fwIXjtmOYbsDKE2BMgAw-116" value="+ Code: string" style="text;strokeColor=none;fillColor=none;align=left;verticalAlign=top;spacingLeft=4;spacingRight=4;overflow=hidden;rotatable=0;points=[[0,0.5],[1,0.5]];portConstraint=eastwest;labelBackgroundColor=none;" parent="fwIXjtmOYbsDKE2BMgAw-113" vertex="1">
                    <mxGeometry y="78" width="174" height="26" as="geometry"/>
                </mxCell>
                <mxCell id="fwIXjtmOYbsDKE2BMgAw-117" value="Email" style="swimlane;fontStyle=0;childLayout=stackLayout;horizontal=1;startSize=26;fillColor=none;horizontalStack=0;resizeParent=1;resizeParentMax=0;resizeLast=0;collapsible=1;marginBottom=0;labelBackgroundColor=none;" parent="fwIXjtmOYbsDKE2BMgAw-0" vertex="1">
                    <mxGeometry x="495.25" y="70" width="140" height="104" as="geometry"/>
                </mxCell>
                <mxCell id="fwIXjtmOYbsDKE2BMgAw-118" value="+ AccountId: type" style="text;strokeColor=none;fillColor=none;align=left;verticalAlign=top;spacingLeft=4;spacingRight=4;overflow=hidden;rotatable=0;points=[[0,0.5],[1,0.5]];portConstraint=eastwest;labelBackgroundColor=none;" parent="fwIXjtmOYbsDKE2BMgAw-117" vertex="1">
                    <mxGeometry y="26" width="140" height="26" as="geometry"/>
                </mxCell>
                <mxCell id="fwIXjtmOYbsDKE2BMgAw-119" value="+ Address: string" style="text;strokeColor=none;fillColor=none;align=left;verticalAlign=top;spacingLeft=4;spacingRight=4;overflow=hidden;rotatable=0;points=[[0,0.5],[1,0.5]];portConstraint=eastwest;labelBackgroundColor=none;" parent="fwIXjtmOYbsDKE2BMgAw-117" vertex="1">
                    <mxGeometry y="52" width="140" height="26" as="geometry"/>
                </mxCell>
                <mxCell id="fwIXjtmOYbsDKE2BMgAw-120" value="+ Verified: bool" style="text;strokeColor=none;fillColor=none;align=left;verticalAlign=top;spacingLeft=4;spacingRight=4;overflow=hidden;rotatable=0;points=[[0,0.5],[1,0.5]];portConstraint=eastwest;labelBackgroundColor=none;" parent="fwIXjtmOYbsDKE2BMgAw-117" vertex="1">
                    <mxGeometry y="78" width="140" height="26" as="geometry"/>
                </mxCell>
                <mxCell id="fwIXjtmOYbsDKE2BMgAw-121" style="edgeStyle=orthogonalEdgeStyle;rounded=0;orthogonalLoop=1;jettySize=auto;html=1;exitX=0.5;exitY=0;exitDx=0;exitDy=0;entryX=0.5;entryY=1;entryDx=0;entryDy=0;startArrow=none;startFill=0;endArrow=diamondThin;endFill=1;" parent="fwIXjtmOYbsDKE2BMgAw-0" source="fwIXjtmOYbsDKE2BMgAw-127" target="fwIXjtmOYbsDKE2BMgAw-106" edge="1">
                    <mxGeometry relative="1" as="geometry"/>
                </mxCell>
                <mxCell id="fwIXjtmOYbsDKE2BMgAw-122" value="1" style="edgeLabel;html=1;align=center;verticalAlign=middle;resizable=0;points=[];labelBackgroundColor=none;" parent="fwIXjtmOYbsDKE2BMgAw-121" vertex="1" connectable="0">
                    <mxGeometry x="0.8911" relative="1" as="geometry">
                        <mxPoint x="6" y="3" as="offset"/>
                    </mxGeometry>
                </mxCell>
                <mxCell id="fwIXjtmOYbsDKE2BMgAw-123" value="1" style="edgeLabel;html=1;align=center;verticalAlign=middle;resizable=0;points=[];labelBackgroundColor=none;" parent="fwIXjtmOYbsDKE2BMgAw-121" vertex="1" connectable="0">
                    <mxGeometry x="-0.8748" relative="1" as="geometry">
                        <mxPoint x="5" y="-2" as="offset"/>
                    </mxGeometry>
                </mxCell>
                <mxCell id="fwIXjtmOYbsDKE2BMgAw-124" style="edgeStyle=none;rounded=0;orthogonalLoop=1;jettySize=auto;html=1;exitX=1;exitY=0.5;exitDx=0;exitDy=0;startArrow=none;startFill=0;endArrow=diamondThin;endFill=1;entryX=0;entryY=0.75;entryDx=0;entryDy=0;" parent="fwIXjtmOYbsDKE2BMgAw-0" source="fwIXjtmOYbsDKE2BMgAw-127" target="fwIXjtmOYbsDKE2BMgAw-20" edge="1">
                    <mxGeometry relative="1" as="geometry">
                        <mxPoint x="701.25" y="403" as="targetPoint"/>
                    </mxGeometry>
                </mxCell>
                <mxCell id="fwIXjtmOYbsDKE2BMgAw-125" value="1" style="edgeLabel;html=1;align=center;verticalAlign=middle;resizable=0;points=[];labelBackgroundColor=none;" parent="fwIXjtmOYbsDKE2BMgAw-124" vertex="1" connectable="0">
                    <mxGeometry x="0.9345" y="2" relative="1" as="geometry">
                        <mxPoint y="-7" as="offset"/>
                    </mxGeometry>
                </mxCell>
                <mxCell id="fwIXjtmOYbsDKE2BMgAw-126" value="1" style="edgeLabel;html=1;align=center;verticalAlign=middle;resizable=0;points=[];labelBackgroundColor=none;" parent="fwIXjtmOYbsDKE2BMgAw-124" vertex="1" connectable="0">
                    <mxGeometry x="-0.919" relative="1" as="geometry">
                        <mxPoint x="-1" y="-9" as="offset"/>
                    </mxGeometry>
                </mxCell>
                <mxCell id="fwIXjtmOYbsDKE2BMgAw-127" value="PhoneNumberVerificationCode" style="swimlane;fontStyle=0;childLayout=stackLayout;horizontal=1;startSize=26;fillColor=none;horizontalStack=0;resizeParent=1;resizeParentMax=0;resizeLast=0;collapsible=1;marginBottom=0;labelBackgroundColor=none;" parent="fwIXjtmOYbsDKE2BMgAw-0" vertex="1">
                    <mxGeometry x="331.75" y="470" width="215" height="104" as="geometry"/>
                </mxCell>
                <mxCell id="fwIXjtmOYbsDKE2BMgAw-128" value="+ PhoneNumberId: Guid" style="text;strokeColor=none;fillColor=none;align=left;verticalAlign=top;spacingLeft=4;spacingRight=4;overflow=hidden;rotatable=0;points=[[0,0.5],[1,0.5]];portConstraint=eastwest;labelBackgroundColor=none;" parent="fwIXjtmOYbsDKE2BMgAw-127" vertex="1">
                    <mxGeometry y="26" width="215" height="26" as="geometry"/>
                </mxCell>
                <mxCell id="fwIXjtmOYbsDKE2BMgAw-129" value="+ AccountId: Guid" style="text;strokeColor=none;fillColor=none;align=left;verticalAlign=top;spacingLeft=4;spacingRight=4;overflow=hidden;rotatable=0;points=[[0,0.5],[1,0.5]];portConstraint=eastwest;labelBackgroundColor=none;" parent="fwIXjtmOYbsDKE2BMgAw-127" vertex="1">
                    <mxGeometry y="52" width="215" height="26" as="geometry"/>
                </mxCell>
                <mxCell id="fwIXjtmOYbsDKE2BMgAw-130" value="+ Code: string" style="text;strokeColor=none;fillColor=none;align=left;verticalAlign=top;spacingLeft=4;spacingRight=4;overflow=hidden;rotatable=0;points=[[0,0.5],[1,0.5]];portConstraint=eastwest;labelBackgroundColor=none;" parent="fwIXjtmOYbsDKE2BMgAw-127" vertex="1">
                    <mxGeometry y="78" width="215" height="26" as="geometry"/>
                </mxCell>
                <mxCell id="fwIXjtmOYbsDKE2BMgAw-131" style="rounded=0;orthogonalLoop=1;jettySize=auto;html=1;startArrow=none;startFill=0;endArrow=diamondThin;endFill=1;entryX=-0.002;entryY=0.197;entryDx=0;entryDy=0;exitX=1;exitY=0.75;exitDx=0;exitDy=0;entryPerimeter=0;" parent="fwIXjtmOYbsDKE2BMgAw-0" source="fwIXjtmOYbsDKE2BMgAw-113" target="fwIXjtmOYbsDKE2BMgAw-20" edge="1">
                    <mxGeometry relative="1" as="geometry">
                        <mxPoint x="495.25" y="136" as="targetPoint"/>
                        <mxPoint x="435.25" y="216" as="sourcePoint"/>
                    </mxGeometry>
                </mxCell>
                <mxCell id="fwIXjtmOYbsDKE2BMgAw-132" value="1" style="edgeLabel;html=1;align=center;verticalAlign=middle;resizable=0;points=[];labelBackgroundColor=none;" parent="fwIXjtmOYbsDKE2BMgAw-131" vertex="1" connectable="0">
                    <mxGeometry x="0.9641" y="1" relative="1" as="geometry">
                        <mxPoint x="-2" y="-8" as="offset"/>
                    </mxGeometry>
                </mxCell>
                <mxCell id="fwIXjtmOYbsDKE2BMgAw-133" value="1" style="edgeLabel;html=1;align=center;verticalAlign=middle;resizable=0;points=[];labelBackgroundColor=none;" parent="fwIXjtmOYbsDKE2BMgAw-131" vertex="1" connectable="0">
                    <mxGeometry x="-0.9373" y="1" relative="1" as="geometry">
                        <mxPoint x="-2" y="-9" as="offset"/>
                    </mxGeometry>
                </mxCell>
                <mxCell id="fwIXjtmOYbsDKE2BMgAw-134" style="edgeStyle=none;rounded=0;orthogonalLoop=1;jettySize=auto;html=1;exitX=1;exitY=0.5;exitDx=0;exitDy=0;startArrow=none;startFill=0;endArrow=diamondThin;endFill=1;entryX=0;entryY=0.5;entryDx=0;entryDy=0;" parent="fwIXjtmOYbsDKE2BMgAw-0" source="fwIXjtmOYbsDKE2BMgAw-106" target="fwIXjtmOYbsDKE2BMgAw-20" edge="1">
                    <mxGeometry relative="1" as="geometry">
                        <mxPoint x="695.25" y="376" as="targetPoint"/>
                    </mxGeometry>
                </mxCell>
                <mxCell id="fwIXjtmOYbsDKE2BMgAw-135" value="1" style="edgeLabel;html=1;align=center;verticalAlign=middle;resizable=0;points=[];labelBackgroundColor=none;" parent="fwIXjtmOYbsDKE2BMgAw-134" vertex="1" connectable="0">
                    <mxGeometry x="0.9395" y="1" relative="1" as="geometry">
                        <mxPoint x="-1" y="-7" as="offset"/>
                    </mxGeometry>
                </mxCell>
                <mxCell id="fwIXjtmOYbsDKE2BMgAw-136" value="1" style="edgeLabel;html=1;align=center;verticalAlign=middle;resizable=0;points=[];labelBackgroundColor=none;" parent="fwIXjtmOYbsDKE2BMgAw-134" vertex="1" connectable="0">
                    <mxGeometry x="-0.9149" relative="1" as="geometry">
                        <mxPoint x="-4" y="-9" as="offset"/>
                    </mxGeometry>
                </mxCell>
            </root>
        </mxGraphModel>
    </diagram>
</mxfile>